<svg width="24" height="30" viewBox="0 0 24 30" fill="none" xmlns="http://www.w3.org/2000/svg">
<path d="M23.531 8.34192C22.7117 2.41319 16.8035 -0.605551 10.4998 0.101286C5.51603 0.660033 0.547262 4.68944 0.341009 10.4513C0.215369 13.9687 1.2129 16.6069 4.55977 17.3494C6.00915 14.7844 4.09292 14.2238 3.79292 12.3657C2.56477 4.7719 12.5529 -0.414347 17.7842 4.89193C21.4067 8.56693 19.0198 19.8657 13.1848 18.6901C7.5954 17.5688 15.9223 8.57445 11.4617 6.81007C7.8354 5.37382 5.90979 11.1976 7.62914 14.0926C6.62039 19.0707 4.44918 23.7582 5.32853 30.0001C8.17851 27.9301 9.14039 23.972 9.92791 19.8414C11.3604 20.7132 12.1273 21.6151 13.9535 21.7557C20.6885 22.2788 24.4554 15.0319 23.531 8.34192Z" fill="white"/>
</svg>
