<svg width="40" height="40" viewBox="0 0 40 40" fill="none" xmlns="http://www.w3.org/2000/svg">
<g clip-path="url(#clip0)">
<path d="M30.1457 13.2061H9.85426C9.40289 13.2061 9.037 13.5719 9.037 14.0233V31.0394C9.037 31.4907 9.40289 31.8566 9.85426 31.8566H13.4718V37.5911C13.4718 38.9216 14.5503 40.0003 15.8809 40.0003C17.2114 40.0003 18.2901 38.9217 18.2901 37.5911V31.8566H21.6597V37.5911C21.6597 38.9216 22.7383 40.0003 24.0689 40.0003C25.3994 40.0003 26.4781 38.9217 26.4781 37.5911V31.8566H30.1458C30.5972 31.8566 30.9631 31.4907 30.9631 31.0394V14.0233C30.963 13.5719 30.5971 13.2061 30.1457 13.2061Z" fill="#CF1257"/>
<path d="M5.60163 13.2017C4.27113 13.2017 3.19245 14.2802 3.19245 15.6108V25.396C3.19245 26.7265 4.27103 27.8051 5.60163 27.8051C6.93213 27.8051 8.0108 26.7266 8.0108 25.396V15.6108C8.01071 14.2803 6.93213 13.2017 5.60163 13.2017Z" fill="#CF1257"/>
<path d="M34.3984 13.2017C33.0679 13.2017 31.9892 14.2802 31.9892 15.6108V25.396C31.9892 26.7265 33.0678 27.8051 34.3984 27.8051C35.7289 27.8051 36.8076 26.7266 36.8076 25.396V15.6108C36.8076 14.2803 35.729 13.2017 34.3984 13.2017Z" fill="#CF1257"/>
<path d="M10.0185 12.0124H29.9336C30.4531 12.0124 30.8406 11.5338 30.7339 11.0253C30.0752 7.88564 28.0762 5.23974 25.3638 3.71124L27.0663 0.639426C27.1815 0.431456 27.1064 0.169364 26.8984 0.054148C26.6899 -0.0613585 26.4282 0.0140644 26.313 0.222034L24.5976 3.31699C23.1927 2.665 21.6269 2.30086 19.976 2.30086C18.3251 2.30086 16.7593 2.665 15.3543 3.31699L13.639 0.221937C13.5237 0.0138708 13.2616 -0.0611648 13.0537 0.0540511C12.8457 0.169267 12.7706 0.431359 12.8858 0.639329L14.5883 3.71114C11.8759 5.23974 9.87692 7.88554 9.21815 11.0253C9.11136 11.5338 9.49884 12.0124 10.0185 12.0124ZM25.9185 7.43446C25.9185 7.94586 25.5039 8.36054 24.9924 8.36054C24.481 8.36054 24.0663 7.94596 24.0663 7.43446C24.0663 6.92305 24.4809 6.50837 24.9924 6.50837C25.5039 6.50837 25.9185 6.92305 25.9185 7.43446ZM14.9595 6.50837C15.4709 6.50837 15.8856 6.92296 15.8856 7.43446C15.8856 7.94586 15.471 8.36054 14.9595 8.36054C14.4481 8.36054 14.0334 7.94596 14.0334 7.43446C14.0334 6.92305 14.448 6.50837 14.9595 6.50837Z" fill="#CF1257"/>
</g>
<defs>
<clipPath id="clip0">
<rect width="40" height="40" fill="white"/>
</clipPath>
</defs>
</svg>
