<svg width="457" height="439" viewBox="0 0 457 439" fill="none" xmlns="http://www.w3.org/2000/svg">
<path d="M391.91 164.29C368.125 70.5008 285.939 2.79814 189.47 0.0826475C138.47 -1.35296 84.8041 15.6084 45.731 74.9625C-24.1162 181.064 50.0233 254.384 101.711 289.224C126.683 306.09 149.184 326.37 168.562 349.476C203.476 391.022 270.642 442.648 350.633 361.757C408.611 303.128 407.754 226.763 391.91 164.29Z" fill="#489DD7"/>
<path d="M456.47 373.154C456.47 396.176 356.286 439 230.089 439C103.892 439 0 398.831 0 375.809C0 352.787 103.892 355.63 230.089 355.63C356.286 355.63 456.47 350.132 456.47 373.154Z" fill="#3F3D56"/>
<path opacity="0.1" d="M456.47 373.154C456.47 396.176 356.286 439 230.089 439C103.892 439 0 398.831 0 375.809C0 352.787 103.892 355.63 230.089 355.63C356.286 355.63 456.47 350.132 456.47 373.154Z" fill="black"/>
<path d="M228.5 417.228C354.697 417.228 457 398.565 457 375.543C457 352.521 354.697 333.858 228.5 333.858C102.303 333.858 0 352.521 0 375.543C0 398.565 102.303 417.228 228.5 417.228Z" fill="#3F3D56"/>
<path d="M315.006 233.774V345.258L333.603 375.649L335.018 377.961H408.394L409.876 233.774H315.006Z" fill="#2F2E41"/>
<path opacity="0.1" d="M315.006 233.774V345.258L333.603 375.649L334.744 233.774H315.006Z" fill="black"/>
<path d="M137.867 230.801V342.285L119.271 372.676L117.855 374.987H44.4788L42.9966 230.801H137.867Z" fill="#2F2E41"/>
<path opacity="0.1" d="M137.867 230.801V342.285L119.271 372.675L118.129 230.801H137.867Z" fill="black"/>
<path d="M432.111 228.571V235.26H33.3615V225.599L70.4198 206.275H399.5L432.111 228.571Z" fill="#2F2E41"/>
<path opacity="0.1" d="M432.111 228.571V235.26H33.3615V225.599L432.111 228.571Z" fill="black"/>
<path opacity="0.1" d="M90.4314 262.017H72.6434L65.2318 256.814H98.5844L90.4314 262.017Z" fill="black"/>
<path opacity="0.1" d="M90.4314 283.571H72.6434L65.2318 278.368H98.5844L90.4314 283.571Z" fill="black"/>
<path opacity="0.1" d="M90.4314 314.043H72.6434L65.2318 308.84H98.5844L90.4314 314.043Z" fill="black"/>
<path opacity="0.1" d="M90.4314 344.515H72.6434L65.2318 339.312H98.5844L90.4314 344.515Z" fill="black"/>
<path opacity="0.1" d="M362.441 264.99H380.229L387.641 259.787H354.288L362.441 264.99Z" fill="black"/>
<path opacity="0.1" d="M362.441 286.543H380.229L387.641 281.341H354.288L362.441 286.543Z" fill="black"/>
<path opacity="0.1" d="M362.441 317.015H380.229L387.641 311.813H354.288L362.441 317.015Z" fill="black"/>
<path opacity="0.1" d="M362.441 347.488H380.229L387.641 342.285H354.288L362.441 347.488Z" fill="black"/>
<path d="M281.993 187.676L279.52 203.504C279.52 203.504 267.349 209.988 275.907 210.179C284.465 210.369 324.782 210.179 324.782 210.179C324.782 210.179 332.579 210.179 320.218 203.313L317.746 186.722L281.993 187.676Z" fill="#3F3D56"/>
<path opacity="0.1" d="M274.185 210.007C275.848 208.659 277.634 207.474 279.52 206.466L281.993 190.637L317.745 190.671L320.218 206.275C322.249 207.326 324.164 208.59 325.931 210.045C327.518 209.681 329.253 208.332 320.218 203.313L317.745 186.722L281.993 187.676L279.52 203.504C279.52 203.504 269.293 208.953 274.185 210.007Z" fill="black"/>
<path d="M374.555 77.3545H224.803C221.676 77.3545 219.14 79.8971 219.14 83.0336V184.19C219.14 187.326 221.676 189.869 224.803 189.869H374.555C377.682 189.869 380.218 187.326 380.218 184.19V83.0336C380.218 79.8971 377.682 77.3545 374.555 77.3545Z" fill="#3F3D56"/>
<path d="M374.798 83.3613H224.56V167.652H374.798V83.3613Z" fill="white"/>
<path d="M299.679 81.6453C300.204 81.6453 300.63 81.2184 300.63 80.6918C300.63 80.1652 300.204 79.7383 299.679 79.7383C299.154 79.7383 298.728 80.1652 298.728 80.6918C298.728 81.2184 299.154 81.6453 299.679 81.6453Z" fill="#F2F2F2"/>
<path d="M380.218 174.327V184.19C380.218 184.936 380.072 185.674 379.787 186.363C379.503 187.052 379.085 187.678 378.559 188.206C378.034 188.733 377.409 189.151 376.722 189.437C376.035 189.722 375.298 189.869 374.555 189.869H224.803C224.06 189.869 223.323 189.722 222.636 189.437C221.949 189.151 221.324 188.733 220.798 188.206C220.273 187.678 219.855 187.052 219.571 186.363C219.286 185.674 219.14 184.936 219.14 184.19V174.327H380.218Z" fill="#3F3D56"/>
<path d="M299.679 185.769C301.675 185.769 303.292 184.146 303.292 182.145C303.292 180.144 301.675 178.522 299.679 178.522C297.683 178.522 296.066 180.144 296.066 182.145C296.066 184.146 297.683 185.769 299.679 185.769Z" fill="#F2F2F2"/>
<path d="M294.048 220.476V222.384H191.734V220.858L191.875 220.476L194.397 213.611H291.956L294.048 220.476Z" fill="#3F3D56"/>
<path d="M333.422 218.61C333.236 219.409 332.532 220.252 330.942 221.049C325.237 223.91 313.636 220.286 313.636 220.286C313.636 220.286 304.698 218.761 304.698 214.756C304.949 214.583 305.211 214.427 305.482 214.289C307.88 213.016 315.833 209.876 329.935 214.421C330.974 214.749 331.902 215.358 332.616 216.183C332.932 216.495 333.17 216.877 333.31 217.299C333.45 217.721 333.489 218.17 333.422 218.61Z" fill="#3F3D56"/>
<path opacity="0.1" d="M333.422 218.61C326.439 221.293 320.214 221.493 313.826 217.044C310.605 214.802 307.678 214.247 305.482 214.289C307.88 213.016 315.833 209.876 329.935 214.421C330.974 214.749 331.902 215.358 332.616 216.183C332.932 216.495 333.17 216.877 333.31 217.299C333.45 217.721 333.489 218.17 333.422 218.61Z" fill="black"/>
<path d="M324.666 217.044C326.032 217.044 327.139 216.703 327.139 216.281C327.139 215.86 326.032 215.519 324.666 215.519C323.301 215.519 322.194 215.86 322.194 216.281C322.194 216.703 323.301 217.044 324.666 217.044Z" fill="#F2F2F2"/>
<path opacity="0.1" d="M294.048 220.477V222.384H191.734V220.858L191.875 220.477H294.048Z" fill="black"/>
<path d="M208.98 103.092C220.166 103.092 229.234 93.9995 229.234 82.7828C229.234 71.5661 220.166 62.4731 208.98 62.4731C197.795 62.4731 188.727 71.5661 188.727 82.7828C188.727 93.9995 197.795 103.092 208.98 103.092Z" fill="#FFB9B9"/>
<path d="M194.057 92.9375V125.005H227.102C227.102 125.005 222.838 98.2821 224.97 90.2651L194.057 92.9375Z" fill="#FFB9B9"/>
<path d="M259.614 136.229C259.614 136.229 228.168 120.73 228.168 119.661C228.168 118.592 224.97 111.644 222.838 111.644C220.706 111.644 202.585 105.765 192.458 114.316L191.392 121.264L152.484 146.919L163.144 185.935C163.144 185.935 170.072 193.417 167.94 198.762C165.809 204.106 169.539 231.364 169.539 231.364L253.218 228.692V192.348C253.218 192.348 255.883 183.797 257.482 181.124C259.081 178.452 257.482 170.435 257.482 170.435L270.274 154.401C270.274 154.401 268.675 139.436 259.614 136.229Z" fill="#E0E0E0"/>
<path opacity="0.1" d="M153.816 160.013L156.215 146.918C156.215 146.918 142.357 207.313 143.956 214.261C145.555 221.209 157.281 231.898 158.88 232.433C160.479 232.967 175.402 186.469 175.402 186.469L153.816 160.013Z" fill="black"/>
<path d="M161.545 145.315L152.484 146.919C152.484 146.919 138.626 207.313 140.225 214.261C141.824 221.209 153.55 231.899 155.149 232.433C156.748 232.968 171.671 186.469 171.671 186.469L161.545 145.315Z" fill="#E0E0E0"/>
<path opacity="0.1" d="M262.545 163.22L267.076 154.401C267.076 154.401 273.472 214.796 269.208 220.675C264.944 226.554 248.077 228.754 248.077 228.754L247.888 184.866L262.545 163.22Z" fill="black"/>
<path d="M263.345 147.453L270.274 154.401C270.274 154.401 276.67 214.796 272.406 220.675C268.142 226.554 251.275 228.754 251.275 228.754L251.086 184.866L263.345 147.453Z" fill="#E0E0E0"/>
<path d="M159.946 239.381C159.946 239.381 144.489 233.502 141.824 244.725C139.159 255.949 148.22 306.189 148.22 306.189C148.22 306.189 154.083 344.136 157.814 345.205C161.545 346.274 178.067 346.808 180.732 341.998C183.397 337.188 172.737 288.017 172.737 288.017L234.564 286.948C234.564 286.948 230.833 329.705 228.701 333.447C226.569 337.188 226.569 350.015 228.701 350.015C230.833 350.015 254.284 348.946 255.883 345.739C257.482 342.532 266.543 270.38 266.543 270.38C266.543 270.38 274.005 245.26 265.477 246.863C256.949 248.467 159.946 239.381 159.946 239.381Z" fill="#3F3D56"/>
<path d="M251.086 343.602C251.086 343.602 256.416 339.86 259.081 343.602C261.746 347.343 262.812 351.619 251.086 358.032C239.361 364.446 230.3 362.843 230.3 361.774V346.274L251.086 343.602Z" fill="#2F2E41"/>
<path d="M158.88 341.998C158.88 341.998 153.55 338.257 150.885 341.998C148.22 345.739 147.154 350.015 158.88 356.429C170.605 362.842 179.666 361.239 179.666 360.17V344.671L158.88 341.998Z" fill="#2F2E41"/>
<path d="M209.112 57.1744C207.094 57.1041 205.08 57.392 203.163 58.0246C201.676 58.624 200.256 59.3775 198.925 60.273L189.984 65.8488C189.224 66.1783 188.58 66.7258 188.13 67.4223C187.681 68.1188 187.448 68.933 187.46 69.7624L186.342 78.1535C186.06 80.271 185.8 82.5356 186.746 84.4501C187.535 86.0481 189.039 87.1416 190.277 88.4224C192.257 90.4805 193.589 93.0771 194.109 95.889C194.748 99.3924 194.339 103.611 197.104 105.847C198.601 107.058 200.641 107.287 202.561 107.399C207.811 107.707 213.078 107.503 218.289 106.792C219.117 106.73 219.925 106.503 220.665 106.124C221.605 105.567 222.197 104.583 222.75 103.639C224.747 100.23 226.805 96.6031 226.783 92.6497C226.772 90.6939 226.273 88.5933 227.21 86.8776C227.705 86.1484 228.242 85.449 228.818 84.7828C229.978 83.149 230.204 81.0497 230.393 79.0533C230.996 72.6764 230.365 67.8237 225.678 63.3318C221.303 59.1386 215.078 57.213 209.112 57.1744Z" fill="#2F2E41"/>
<path d="M159.361 302.522L141.573 393.196H150.466L167.514 304.009L159.361 302.522Z" fill="#2F2E41"/>
<path d="M216.431 309.955L227.548 414.007H234.96L228.289 306.982L216.431 309.955Z" fill="#2F2E41"/>
<path d="M246.819 306.982L262.383 376.102H269.795L254.972 305.496L246.819 306.982Z" fill="#2F2E41"/>
<path d="M187.525 306.982L185.302 361.981H191.231L195.678 306.982H187.525Z" fill="#2F2E41"/>
<path d="M146.761 292.861C146.761 292.861 134.902 213.335 168.255 211.106C201.607 208.876 249.042 211.106 249.042 211.106C249.042 211.106 276.465 208.876 268.313 292.861C268.313 292.861 275.724 317.387 209.019 315.158C142.314 312.928 146.761 292.861 146.761 292.861Z" fill="#CF1257"/>
<path d="M450.645 325.336C450.645 339.203 442.424 344.046 432.283 344.046C422.141 344.046 413.92 339.203 413.92 325.336C413.92 311.468 432.283 293.826 432.283 293.826C432.283 293.826 450.645 311.468 450.645 325.336Z" fill="#F8BA1A"/>
<path d="M431.802 330.319L439.628 315.961L431.831 328.498L431.916 323.28L437.31 312.891L431.938 321.898L432.09 312.513L437.866 304.243L432.114 311.037L432.209 293.827L431.638 315.634L425.788 306.656L431.567 317.474L431.02 327.956L431.003 327.678L424.233 318.192L430.983 328.661L430.914 329.972L430.902 329.992L430.908 330.099L429.52 344.087H431.375L431.597 342.957L438.33 332.514L431.613 341.925L431.802 330.319Z" fill="#3F3D56"/>
<path d="M444.01 374.128H422.118L416.46 342.062H448.438L444.01 374.128Z" fill="#2F2E41"/>
<path d="M122.326 157.341H76.7845V210.882H122.326V157.341Z" fill="#F8BA1A"/>
<path d="M115.259 165.649H83.8512V202.574H115.259V165.649Z" fill="#F2F2F2"/>
</svg>
