<svg width="34" height="40" viewBox="0 0 34 40" fill="none" xmlns="http://www.w3.org/2000/svg">
<path d="M27.9178 21.2531C27.8673 16.1874 32.0491 13.7579 32.2359 13.6372C29.8862 10.199 26.2261 9.72795 24.9218 9.6735C21.8069 9.35811 18.8438 11.5074 17.263 11.5074C15.6861 11.5074 13.2466 9.72014 10.6633 9.76709C7.26812 9.81756 4.13757 11.7412 2.38937 14.7819C-1.13813 20.903 1.48601 29.971 4.92414 34.9353C6.60414 37.3653 8.60742 40.0945 11.2376 39.997C13.7705 39.8959 14.7284 38.358 17.7906 38.358C20.8528 38.358 21.7137 39.997 24.3941 39.9467C27.1197 39.8961 28.8465 37.4702 30.5149 35.0328C32.4441 32.2137 33.2385 29.4844 33.2854 29.3444C33.2248 29.3167 27.9705 27.3038 27.9178 21.2531ZM22.8812 6.38709C24.2773 4.69342 25.2195 2.34365 24.9625 -0.000488281C22.9516 0.0813867 20.5142 1.33897 19.0715 3.02881C17.7769 4.52787 16.6437 6.92045 16.9474 9.21771C19.1923 9.39287 21.4837 8.07693 22.8812 6.38709Z" fill="#CF1257"/>
</svg>
