<svg width="36" height="40" viewBox="0 0 36 40" fill="none" xmlns="http://www.w3.org/2000/svg">
<path d="M34.0211 32.1162C32.8481 31.6358 32.3463 30.9983 32.3949 30.0471C32.4448 28.9368 31.8149 28.1235 31.5158 27.8022C31.6965 27.1118 32.2246 24.7236 31.5163 22.6492C30.7551 20.4289 28.4312 17.0378 26.0332 13.7044C25.0516 12.3355 25.0052 10.8475 24.9515 9.12442C24.9001 7.481 24.8422 5.61817 23.9257 3.54734C22.9292 1.2925 20.9297 -0.000488281 18.4396 -0.000488281C16.9583 -0.000488281 15.4378 0.462466 14.2676 1.26955C11.8716 2.9232 12.1883 6.5286 12.3979 8.91432C12.4266 9.24102 12.4536 9.54961 12.4693 9.81309C12.6089 12.1496 12.4819 13.3811 12.3159 13.7554C12.2085 14 11.6797 14.6961 11.1201 15.4332C10.5413 16.1954 9.88519 17.0594 9.34735 17.8645C8.70564 18.8333 8.18761 20.3141 7.68662 21.7461C7.32006 22.794 6.97383 23.7838 6.63678 24.3753C5.99795 25.5131 6.1569 26.5741 6.28963 27.0645C6.04779 27.2325 5.69841 27.5632 5.40346 28.1867C5.04699 28.9474 4.32371 29.3562 2.8197 29.6453C2.12855 29.7867 1.65195 30.0774 1.40277 30.5091C1.04015 31.1374 1.23766 31.9269 1.41785 32.4665C1.68409 33.2597 1.51818 33.7617 1.21654 34.6732C1.14703 34.8835 1.06821 35.1217 0.988342 35.3844C0.862571 35.799 0.907948 36.1759 1.1229 36.5047C1.6909 37.373 3.34836 37.6792 5.0546 37.8807C6.07336 38.0016 7.18839 38.4091 8.26682 38.8033C9.32348 39.1894 10.4161 39.5888 11.4093 39.7099C11.5602 39.729 11.7097 39.7385 11.8539 39.7385C13.3534 39.7385 14.0309 38.7435 14.2457 38.3347C14.7844 38.2248 16.6421 37.8728 18.5567 37.8256C20.4683 37.771 22.3179 38.1485 22.8419 38.2659C23.0066 38.5811 23.4408 39.3013 24.133 39.6723C24.5135 39.8803 25.0429 39.9995 25.5852 39.9995C25.5854 39.9995 25.5852 39.9995 25.5854 39.9995C26.1645 39.9995 27.2663 39.8626 28.1383 38.9452C29.0081 38.0235 31.1812 36.8468 32.7681 35.9877C33.1222 35.7959 33.4535 35.6165 33.744 35.4546C34.6354 34.9604 35.1218 34.2543 35.0784 33.5174C35.0422 32.9053 34.6371 32.3684 34.0211 32.1162ZM14.2872 31.9387C14.1762 31.1571 13.1707 30.3819 12.0063 29.4843C11.0541 28.7503 9.9749 27.9184 9.67758 27.2139C9.06315 25.7605 9.54749 23.2049 10.3919 21.889C10.8093 21.2301 11.1501 20.2309 11.4798 19.2646C11.8358 18.2211 12.2039 17.1423 12.6156 16.67C13.2675 15.9327 13.87 14.4981 13.9768 13.3675C14.5873 13.9503 15.5343 14.6898 16.4092 14.6898C16.5439 14.6898 16.6746 14.6723 16.7996 14.637C17.3982 14.4641 18.2786 13.9554 19.13 13.4636C19.864 13.0395 20.7692 12.5164 21.1098 12.4688C21.6938 13.3074 25.0873 20.8171 25.434 23.2288C25.7084 25.137 25.4185 26.7144 25.2728 27.3323C25.1556 27.3163 25.0158 27.3033 24.8689 27.3033C23.9237 27.3033 23.6735 27.8192 23.6083 28.1273C23.4407 28.9277 23.423 31.4871 23.4212 32.0621C23.0794 32.4964 21.351 34.5413 18.8695 34.9089C17.8588 35.0557 16.9149 35.1302 16.0643 35.1302C15.3372 35.1302 14.8732 35.0741 14.6805 35.0449L13.4335 33.6181C13.9252 33.3753 14.4168 32.8631 14.2872 31.9387ZM15.8695 8.41255C15.8305 8.42934 15.7923 8.44731 15.7546 8.46645C15.7508 8.38199 15.742 8.29635 15.7285 8.21045C15.5924 7.42684 15.0728 6.85805 14.4932 6.85805C14.4503 6.85805 14.4072 6.86133 14.3598 6.86854C14.0151 6.92598 13.7446 7.185 13.5964 7.55222C13.7264 6.74644 14.1829 6.14985 14.7246 6.14985C15.3606 6.14985 15.898 7.00703 15.898 8.0216C15.898 8.14947 15.8886 8.27668 15.8695 8.41255ZM20.812 9.01675C20.8702 8.83131 20.9017 8.63065 20.9017 8.42239C20.9017 7.50251 20.3181 6.78185 19.573 6.78185C18.8449 6.78185 18.2525 7.51773 18.2525 8.42239C18.2525 8.48403 18.2555 8.5458 18.2613 8.60744C18.2227 8.59262 18.1851 8.57819 18.1483 8.56429C18.0645 8.31052 18.0222 8.04573 18.0222 7.77543C18.0222 6.67549 18.7251 5.78053 19.5894 5.78053C20.4535 5.78053 21.1566 6.67549 21.1566 7.77543C21.1566 8.23301 21.0303 8.66973 20.812 9.01675ZM20.1747 11.1576C20.1622 11.2132 20.1358 11.2379 19.8428 11.3903C19.6948 11.4673 19.5107 11.5631 19.2803 11.7035L19.1263 11.7967C18.5075 12.1718 17.0588 13.0504 16.6654 13.1019C16.3983 13.1378 16.233 13.0342 15.8615 12.7818C15.7777 12.7247 15.6885 12.6641 15.5934 12.6031C14.9237 12.1637 14.4928 11.6796 14.4442 11.4903C14.6625 11.3216 15.2038 10.8991 15.4809 10.649C16.0434 10.126 16.6094 9.77453 16.8896 9.77453C16.9044 9.77453 16.9178 9.77558 16.9317 9.7782C17.2609 9.8363 18.0728 10.1604 18.6658 10.397C18.9399 10.5063 19.1767 10.6008 19.3432 10.6606C19.868 10.8408 20.1415 11.0713 20.1747 11.1576ZM24.8891 35.5998C25.1851 34.2645 25.5261 32.4481 25.4709 31.3773C25.4582 31.134 25.4366 30.8692 25.4158 30.6132C25.3768 30.1345 25.319 29.4231 25.3787 29.212C25.3905 29.2065 25.4036 29.2018 25.4182 29.1977C25.4206 29.8099 25.5536 31.0311 26.5302 31.4569C26.8212 31.5839 27.1538 31.6481 27.5186 31.6481C28.4969 31.6481 29.5823 31.1682 30.0268 30.7237C30.2886 30.4619 30.5088 30.1416 30.663 29.888C30.6968 29.9867 30.7175 30.1158 30.7066 30.2821C30.6485 31.185 31.0873 32.3829 31.9225 32.8244L32.044 32.8883C32.3415 33.0443 33.1315 33.4591 33.1442 33.6559C33.1441 33.656 33.1376 33.6791 33.0935 33.72C32.8956 33.9009 32.1991 34.2565 31.5255 34.6005C30.3306 35.2106 28.9762 35.9022 28.3679 36.5419C27.5115 37.4432 26.5429 38.0486 25.958 38.0486C25.8875 38.0486 25.8234 38.0396 25.7664 38.0215C25.1311 37.8235 24.6082 36.9069 24.8891 35.5998ZM3.23505 32.1934C3.17026 31.8902 3.11911 31.6509 3.17406 31.419C3.21393 31.2472 4.06207 31.0631 4.4243 30.9845C4.93355 30.8739 5.46024 30.7597 5.80464 30.5507C6.27035 30.2686 6.52255 29.7483 6.74497 29.2893C6.90602 28.9573 7.07232 28.6141 7.27022 28.5015C7.28137 28.4949 7.29842 28.4873 7.33095 28.4873C7.7017 28.4873 8.47967 29.2667 8.92794 29.9643C9.04165 30.1402 9.25227 30.4926 9.49594 30.9006C10.2247 32.12 11.2226 33.7902 11.7438 34.3499C12.2135 34.8531 12.9737 35.8206 12.7867 36.6504C12.6498 37.2942 11.9209 37.8177 11.7489 37.9335C11.6865 37.9477 11.6093 37.9549 11.5184 37.9549C10.5209 37.9549 8.5463 37.125 7.48544 36.6791L7.32845 36.6131C6.73605 36.3647 5.76897 36.2083 4.83375 36.0569C4.08961 35.9364 3.07059 35.7716 2.90167 35.6226C2.76475 35.469 2.92357 34.9697 3.06364 34.5292C3.16449 34.2126 3.26862 33.8852 3.32567 33.5426C3.40659 32.9959 3.31138 32.5509 3.23505 32.1934Z" fill="#CF1257"/>
</svg>
