<svg width="375" height="697" viewBox="0 0 375 697" fill="none" xmlns="http://www.w3.org/2000/svg">
<mask id="mask0" mask-type="alpha" maskUnits="userSpaceOnUse" x="-564" y="0" width="1185" height="698">
<path d="M620.34 697L-563.245 697C-563.245 424.804 -563.245 272.195 -563.245 -0.000103472C-243.924 330.828 145.716 -91.8 620.34 131.098L620.34 697Z" fill="#489DD7"/>
</mask>
<g mask="url(#mask0)">
<path d="M620.34 697L-563.245 697C-563.245 424.804 -563.245 272.195 -563.245 -0.000103472C-243.924 330.828 145.716 -91.8 620.34 131.098L620.34 697Z" fill="#090F3F"/>
<mask id="mask1" mask-type="alpha" maskUnits="userSpaceOnUse" x="-654" y="-475" width="846" height="745">
<path opacity="0.5" d="M-624.195 -56.4622C-652.936 -76.321 -662.254 -114.55 -645.874 -145.404L-490.6 -437.871C-472.765 -471.464 -431.071 -484.241 -397.474 -466.408L154.889 -173.234C193.114 -152.944 203.376 -102.845 176.197 -69.1662L-76.7432 244.299C-99.3851 272.353 -139.837 278.207 -169.5 257.708L-624.195 -56.4622Z" fill="url(#paint0_linear)"/>
</mask>
<g mask="url(#mask1)">
<path opacity="0.7" d="M-624.835 -57.2513C-653.576 -77.11 -662.894 -115.339 -646.513 -146.193L-491.24 -438.66C-473.404 -472.253 -431.711 -485.03 -398.114 -467.198L154.25 -174.023C192.474 -153.733 202.736 -103.634 175.557 -69.9553L-77.3828 243.51C-100.025 271.564 -140.477 277.418 -170.14 256.919L-624.835 -57.2513Z" fill="#FCC22C"/>
</g>
<mask id="mask2" mask-type="alpha" maskUnits="userSpaceOnUse" x="-863" y="290" width="628" height="775">
<path d="M-236.538 894.441C-231.015 928.936 -252.194 962.099 -285.811 971.595L-604.471 1061.61C-641.073 1071.95 -679.13 1050.66 -689.474 1014.06L-859.539 412.28C-871.306 370.635 -842.204 328.584 -799.081 324.937L-397.726 290.968C-361.804 287.931 -329.607 313.11 -323.909 348.715L-236.538 894.441Z" fill="#CF1257"/>
</mask>
<g mask="url(#mask2)">
</g>
<mask id="mask3" mask-type="alpha" maskUnits="userSpaceOnUse" x="-141" y="421" width="764" height="536">
<path d="M547.558 465.99C582.378 468.817 609.562 497.266 610.803 532.177L622.565 863.097C623.916 901.107 594.197 933.019 556.184 934.374L-68.7635 956.659C-112.012 958.2 -145.948 919.944 -139.25 877.188L-76.9304 479.249C-71.3487 443.633 -39.2436 418.337 -3.30471 421.258L547.558 465.99Z" fill="#CF1257"/>
</mask>
<g mask="url(#mask3)">
<path d="M548.506 466.353C583.326 469.181 610.51 497.629 611.751 532.54L623.514 863.461C624.864 901.471 595.145 933.382 557.133 934.738L-67.8152 957.022C-111.064 958.563 -145 920.307 -138.302 877.551L-75.9821 479.612C-70.4004 443.996 -38.2953 418.7 -2.35642 421.621L548.506 466.353Z" fill="url(#paint1_linear)"/>
</g>
<mask id="mask4" mask-type="alpha" maskUnits="userSpaceOnUse" x="44" y="300" width="846" height="752">
<path d="M861.381 637.95C889.677 658.436 898.151 696.862 881.095 727.347L719.42 1016.32C700.849 1049.52 658.884 1061.37 625.688 1042.8L79.9136 737.539C42.145 716.412 32.9887 666.1 60.9026 633.027L320.683 325.207C343.937 297.659 384.508 292.697 413.713 313.844L861.381 637.95Z" fill="#CF1257"/>
</mask>
<g mask="url(#mask4)">
<path d="M862.003 638.753C890.299 659.24 898.773 697.666 881.717 728.151L720.042 1017.13C701.471 1050.32 659.506 1062.18 626.31 1043.61L80.5356 738.343C42.767 717.216 33.6107 666.903 61.5246 633.831L321.305 326.011C344.559 298.463 385.13 293.5 414.335 314.648L862.003 638.753Z" fill="url(#paint2_linear)"/>
</g>
<mask id="mask5" mask-type="alpha" maskUnits="userSpaceOnUse" x="170" y="-302" width="537" height="763">
<path opacity="0.5" d="M215.847 -226.922C218.675 -261.741 247.123 -288.926 282.034 -290.166L612.955 -301.929C650.965 -303.28 682.876 -273.56 684.231 -235.548L706.516 389.4C708.057 432.648 669.801 466.585 627.045 459.886L229.106 397.567C193.49 391.985 168.194 359.88 171.115 323.941L215.847 -226.922Z" fill="url(#paint3_linear)"/>
</mask>
<g mask="url(#mask5)">
<path opacity="0.7" d="M216.21 -227.87C219.038 -262.69 247.487 -289.874 282.397 -291.115L613.318 -302.877C651.328 -304.228 683.24 -274.509 684.595 -236.496L706.88 388.452C708.42 431.7 670.164 465.636 627.408 458.938L229.469 396.618C193.853 391.037 168.557 358.932 171.478 322.993L216.21 -227.87Z" fill="#FCC22C"/>
</g>
</g>
<defs>
<linearGradient id="paint0_linear" x1="-128.658" y1="211.629" x2="-362.547" y2="-516.042" gradientUnits="userSpaceOnUse">
<stop stop-color="#FCC22C"/>
<stop offset="1" stop-color="#FCC22C" stop-opacity="0"/>
</linearGradient>
<linearGradient id="paint1_linear" x1="-59.5855" y1="335.254" x2="109.255" y2="761.67" gradientUnits="userSpaceOnUse">
<stop stop-color="#CF1257"/>
<stop offset="1" stop-color="#CF1257" stop-opacity="0"/>
</linearGradient>
<linearGradient id="paint2_linear" x1="410.236" y1="211.121" x2="333.274" y2="663.244" gradientUnits="userSpaceOnUse">
<stop stop-color="#CF1257"/>
<stop offset="1" stop-color="#CF1257" stop-opacity="0"/>
</linearGradient>
<linearGradient id="paint3_linear" x1="231.442" y1="336.272" x2="744.679" y2="-230.118" gradientUnits="userSpaceOnUse">
<stop stop-color="#FCC22C"/>
<stop offset="1" stop-color="#FCC22C" stop-opacity="0"/>
</linearGradient>
</defs>
</svg>
