<svg width="30" height="26" viewBox="0 0 30 26" fill="none" xmlns="http://www.w3.org/2000/svg">
<path d="M30 3.69861C28.8959 4.18788 27.7111 4.51969 26.4663 4.66783C27.7373 3.9067 28.7103 2.69945 29.1714 1.26533C27.9791 1.97018 26.6631 2.482 25.2609 2.75945C24.138 1.56156 22.5408 0.81543 20.7692 0.81543C17.3705 0.81543 14.6147 3.57116 14.6147 6.96802C14.6147 7.44978 14.6691 7.92032 14.7741 8.37027C9.66008 8.11341 5.12532 5.66327 2.09027 1.94018C1.55973 2.84754 1.25792 3.90479 1.25792 5.03337C1.25792 7.16861 2.34522 9.05263 3.99493 10.1549C2.98635 10.1212 2.03777 9.8437 1.20733 9.38253V9.45939C1.20733 12.4401 3.32944 14.9277 6.14326 15.4939C5.62772 15.6326 5.0841 15.7095 4.52169 15.7095C4.12429 15.7095 3.73998 15.6701 3.36316 15.5951C4.14674 18.0415 6.41885 19.8206 9.11086 19.8693C7.00561 21.519 4.35111 22.4995 1.46792 22.4995C0.971155 22.4995 0.481841 22.4695 7.62939e-05 22.4151C2.72395 24.1642 5.95772 25.184 9.43331 25.184C20.7543 25.184 26.9425 15.807 26.9425 7.67478L26.9219 6.87807C28.131 6.01567 29.177 4.93214 30 3.69861Z" fill="white"/>
</svg>
