<svg width="375" height="916" viewBox="0 0 375 916" fill="none" xmlns="http://www.w3.org/2000/svg">
<mask id="mask0" mask-type="alpha" maskUnits="userSpaceOnUse" x="-317" y="107" width="1439" height="687">
<path d="M-193.516 171.473C-294.516 194.972 -361.516 279.972 -279.597 429.989L-37.8938 745.883C-10.131 782.167 58.751 801.833 115.96 789.809L1056.51 592.12C1121.6 578.438 1141.78 530.52 1098.41 492.581L694.813 139.468C658.684 107.865 599.5 103.529 540.66 110.595L-193.516 171.473Z" fill="#FCC22C"/>
</mask>
<g mask="url(#mask0)">
<path d="M-379.516 80.4724H1210.48C1210.48 411.637 1210.48 597.308 1210.48 928.472C781.515 525.972 258.082 1040.16 -379.516 768.972V80.4724Z" fill="#090F3F"/>
<mask id="mask1" mask-type="alpha" maskUnits="userSpaceOnUse" x="-545" y="-439" width="1253" height="1180">
<path opacity="0.5" d="M-365.784 330.732C-405.813 316.445 -428.802 274.452 -419.267 233.035L-328.887 -159.563C-318.505 -204.657 -273.531 -232.801 -228.432 -222.424L513.015 -51.8227C564.326 -40.0149 592.161 15.6293 570.826 63.7666L372.281 511.795C354.507 551.893 308.812 571.511 267.497 556.762L-365.784 330.732Z" fill="url(#paint0_linear)"/>
</mask>
<g mask="url(#mask1)">
<path opacity="0.7" d="M-366.784 330.006C-406.813 315.719 -429.802 273.726 -420.267 232.309L-329.887 -160.288C-319.505 -205.383 -274.531 -233.526 -229.432 -223.149L512.015 -52.5483C563.326 -40.7405 591.161 14.9037 569.826 63.041L371.281 511.07C353.507 551.168 307.812 570.786 266.497 556.036L-366.784 330.006Z" fill="#FCC22C"/>
</g>
<mask id="mask2" mask-type="alpha" maskUnits="userSpaceOnUse" x="-723" y="475" width="1346" height="1304">
<path d="M389.216 1326.15C406.569 1364.95 392.122 1410.59 355.606 1432.34L9.46651 1638.47C-30.2917 1662.14 -81.7196 1649.11 -105.402 1609.35L-494.753 955.702C-521.696 910.466 -500.738 851.885 -451.208 834.019L9.76201 667.716C51.0217 652.836 96.7878 672.288 114.695 712.335L389.216 1326.15Z" fill="#CF1257"/>
</mask>
<g mask="url(#mask2)">
<path d="M389.384 1327.38C406.736 1366.18 392.289 1411.82 355.773 1433.56L9.63362 1639.69C-30.1246 1663.37 -81.5525 1650.33 -105.235 1610.57L-494.586 956.926C-521.529 911.69 -500.57 853.109 -451.041 835.243L9.92912 668.94C51.1888 654.06 96.9549 673.512 114.862 713.56L389.384 1327.38Z" fill="url(#paint1_linear)"/>
</g>
<mask id="mask3" mask-type="alpha" maskUnits="userSpaceOnUse" x="79" y="249" width="1375" height="1353">
<path d="M1124.61 603.28C1167.12 602.96 1203.12 634.51 1208.38 676.684L1258.25 1076.45C1263.98 1122.37 1231.4 1164.24 1185.48 1169.97L430.518 1264.24C378.272 1270.76 333.028 1228.05 336.544 1175.52L369.241 686.558C372.172 642.795 408.357 608.684 452.225 608.356L1124.61 603.28Z" fill="#CF1257"/>
</mask>
<g mask="url(#mask3)">
<path d="M1125.8 603.619C1168.3 603.298 1204.31 634.849 1209.57 677.023L1259.44 1076.79C1265.17 1122.71 1232.59 1164.58 1186.67 1170.31L431.707 1264.58C379.461 1271.1 334.217 1228.39 337.733 1175.85L370.429 686.896C373.36 643.133 409.545 609.022 453.413 608.695L1125.8 603.619Z" fill="url(#paint2_linear)"/>
</g>
<mask id="mask4" mask-type="alpha" maskUnits="userSpaceOnUse" x="258" y="-523" width="1379" height="1373">
<path opacity="0.5" d="M567.746 -134.11C560.105 -175.92 584.977 -216.825 625.613 -229.276L1010.8 -347.303C1055.05 -360.86 1101.91 -335.983 1115.47 -291.738L1338.45 435.675C1353.88 486.015 1319.61 537.944 1267.25 543.535L779.974 595.605C736.361 600.261 696.523 570.497 688.639 527.342L567.746 -134.11Z" fill="url(#paint3_linear)"/>
</mask>
<g mask="url(#mask4)">
<path opacity="0.7" d="M567.875 -135.339C560.233 -177.149 585.106 -218.054 625.742 -230.505L1010.93 -348.532C1055.17 -362.089 1102.04 -337.212 1115.6 -292.967L1338.58 434.446C1354.01 484.786 1319.73 536.715 1267.38 542.306L780.102 594.376C736.489 599.032 696.652 569.268 688.768 526.113L567.875 -135.339Z" fill="#FCC22C"/>
</g>
</g>
<defs>
<linearGradient id="paint0_linear" x1="300.984" y1="489.749" x2="-203.016" y2="-291.751" gradientUnits="userSpaceOnUse">
<stop stop-color="#FCC22C"/>
<stop offset="1" stop-color="#FCC22C" stop-opacity="0"/>
</linearGradient>
<linearGradient id="paint1_linear" x1="173.52" y1="601.986" x2="-182.606" y2="1031.54" gradientUnits="userSpaceOnUse">
<stop stop-color="#CF1257"/>
<stop offset="1" stop-color="#CF1257" stop-opacity="0"/>
</linearGradient>
<linearGradient id="paint2_linear" x1="374.764" y1="510.187" x2="625.269" y2="1008.78" gradientUnits="userSpaceOnUse">
<stop stop-color="#CF1257"/>
<stop offset="1" stop-color="#CF1257" stop-opacity="0"/>
</linearGradient>
<linearGradient id="paint3_linear" x1="763.417" y1="522.837" x2="1188.22" y2="-304.39" gradientUnits="userSpaceOnUse">
<stop stop-color="#FCC22C"/>
<stop offset="1" stop-color="#FCC22C" stop-opacity="0"/>
</linearGradient>
</defs>
</svg>
