<svg width="580" height="429" viewBox="0 0 580 429" fill="none" xmlns="http://www.w3.org/2000/svg">
<g clip-path="url(#clip0)">
<path d="M534.334 104.284C468.505 13.0675 329.445 -23.9338 192.683 15.9175C120.382 36.9856 50.6696 79.1989 16.122 160.937C-45.6356 307.054 84.0322 353.72 168.821 368.593C209.82 375.784 248.434 387.865 283.721 404.313C347.203 433.904 459.572 460.124 544.306 336.864C605.721 247.525 578.182 165.043 534.334 104.284Z" fill="#F8BA1A"/>
<path d="M152.68 122.331C152.496 120.881 152.124 119.461 151.572 118.107C151.502 117.851 151.379 117.612 151.211 117.406C151.043 117.2 150.833 117.031 150.596 116.91C150.279 116.828 149.947 116.824 149.628 116.899L144.655 117.657C144.239 117.676 143.841 117.83 143.521 118.096C142.873 118.774 143.511 119.866 143.491 120.802C143.469 121.854 142.53 122.708 141.512 122.991C140.473 123.2 139.401 123.187 138.367 122.952L131.414 121.876C133.462 121.225 135.284 120.014 136.674 118.381C137.589 117.301 138.076 115.286 136.753 114.775C136.361 114.668 135.951 114.635 135.546 114.679C132.396 114.703 129.917 112.084 126.968 110.981C125.08 110.32 123.031 110.271 121.114 110.84C119.197 111.41 117.509 112.568 116.293 114.149L119.997 114.327C120.345 114.308 120.691 114.4 120.984 114.589C121.795 115.253 120.786 116.529 120.901 117.569C121.049 118.92 122.851 119.208 124.209 119.345C125.567 119.482 127.29 120.58 126.636 121.774C119.811 124.115 112.865 117.197 105.697 118.049C103.882 118.264 102.169 118.974 100.398 119.42C89.5773 122.147 78.3909 114.873 67.3372 116.413C64.8798 116.831 62.4646 117.465 60.1203 118.309C58.6159 118.801 57.0467 119.332 55.9535 120.473C54.8604 121.614 54.4444 123.565 55.48 124.757C52.6257 124.991 49.7524 124.719 46.9936 123.954C47.7396 124.367 48.3603 124.972 48.7903 125.707C49.2204 126.441 49.4441 127.277 49.4379 128.127C44.9814 128.85 40.6428 130.167 36.5389 132.043C37.3049 133.311 38.1995 134.498 39.2087 135.584L33.5668 139.194C35.4729 139.672 36.4584 142.26 35.35 143.877C37.3264 143.001 38.5513 140.736 40.6647 140.277C42.0493 139.976 43.4581 140.54 44.7716 141.07C46.0851 141.6 47.5288 142.113 48.8885 141.716C50.2483 141.318 51.2512 139.563 50.3872 138.444C56.1991 136.755 62.2055 135.821 68.2577 135.664C68.7246 135.605 69.1981 135.695 69.6111 135.92C70.399 136.464 70.1917 137.639 70.1493 138.593C70.1068 139.547 70.8534 140.801 71.7096 140.371C70.7023 141.241 71.5634 142.878 72.5298 143.793C73.4962 144.707 74.6609 145.969 74.0693 147.159C73.9149 147.469 73.653 147.718 73.5044 148.031C73.0659 148.956 73.7621 150.034 74.5835 150.649C75.4047 151.263 76.4108 151.692 76.9813 152.542C77.5518 153.393 77.2927 154.882 76.2725 155L73.3729 151.334C72.3822 152.357 71.703 153.639 71.4141 155.031C74.4889 157.534 74.9514 162.628 72.3772 165.64C71.0617 167.179 69.1909 168.114 67.5582 169.314C65.9254 170.515 64.4146 172.224 64.4187 174.245C64.4258 177.736 64.1393 180.98 65.4532 184.217C67.8761 190.186 70.6734 195.998 73.8285 201.617C74.6571 203.093 75.7279 204.71 77.4064 204.964C75.2851 199.822 73.3756 194.599 71.6777 189.297C72.7836 189.301 74.0615 189.389 74.7098 190.281C75.2466 191.02 75.1313 192.024 75.2981 192.921C75.5103 193.789 75.864 194.618 76.3453 195.372L86.4751 213.34C87.3148 214.829 88.278 216.428 89.8829 217.032C90.909 217.417 92.0962 217.345 93.0406 217.9C93.7809 218.335 94.2795 219.108 95.0342 219.517C97.1681 220.677 100.135 218.454 102.13 219.838C102.7 220.233 103.063 220.862 103.588 221.315C105.43 222.903 108.451 221.841 110.577 223.025C111.947 223.789 112.658 225.316 113.388 226.7C115.219 230.167 118.181 233.563 122.105 233.839C123.337 233.925 124.596 233.693 125.801 233.966C127.006 234.239 128.192 235.286 127.998 236.501C127.667 238.584 128.7 240.865 128.423 242.956C127.917 246.765 122.492 248.439 122.026 252.252C121.924 253.087 122.083 253.949 121.884 254.767C121.639 255.768 120.883 256.584 120.615 257.58C120.106 259.467 121.464 261.345 122.955 262.614C124.447 263.884 126.226 264.978 127.041 266.755C127.903 268.634 127.48 270.824 127.76 272.87C128.372 277.337 132.246 280.649 136.234 282.784C137.449 283.434 138.753 284.064 139.54 285.193C140.566 286.666 140.464 288.608 140.807 290.368C141.646 294.678 145.29 298.23 145.393 302.619C145.467 305.739 143.725 308.57 142.685 311.514C141.71 314.334 141.357 317.331 141.65 320.3C141.944 323.268 142.877 326.139 144.386 328.716C145.164 330.025 146.095 331.259 146.646 332.677C147.628 335.209 147.309 338.087 148.215 340.647C149.413 344.031 152.704 346.826 152.389 350.401C153.883 353.49 157.182 355.008 160.499 355.928L166.445 357.576C167.584 357.891 168.773 358.209 169.932 357.981C171.092 357.752 172.198 356.794 172.168 355.618C169.252 354.963 166.243 354.267 163.84 352.497C161.436 350.728 159.79 347.578 160.702 344.743C161.125 343.429 162.024 341.911 161.169 340.825C160.679 340.204 159.784 340.041 159.231 339.474C158.37 338.589 158.666 337.102 159.285 336.035C159.905 334.968 160.8 334.015 161.05 332.808C161.176 332.132 161.092 331.435 160.808 330.809C160.525 330.182 160.056 329.657 159.464 329.304C160.567 328.89 161.57 328.249 162.407 327.424C163.181 326.544 163.539 325.187 162.93 324.186C164.738 324.415 166.872 324.527 168.059 323.149C169.007 322.05 168.942 320.406 168.567 319.005C168.193 317.605 167.56 316.245 167.54 314.796C171.71 314.993 175.89 314.852 180.038 314.374C179.438 312.363 178.075 310.663 176.238 309.636C178.116 309.319 179.828 307.08 180.421 305.277C181.014 303.474 180.863 301.511 180.496 299.649C180.355 299.17 180.336 298.663 180.44 298.175C180.652 297.504 181.314 297.094 181.927 296.744L191.25 291.412C191.807 291.134 192.311 290.763 192.741 290.316C193.718 289.173 193.573 287.448 193.073 286.033C192.573 284.617 191.772 283.286 191.579 281.798C191.003 277.347 195.788 274.154 197.402 269.964C198.036 268.32 198.165 266.532 198.288 264.776C198.42 262.889 198.43 260.697 196.974 259.481C195.58 258.315 193.4 258.575 191.941 257.491C190.603 256.497 190.141 254.566 188.679 253.763C187.352 253.034 185.687 253.498 184.211 253.155C181.611 252.551 179.975 249.568 177.32 249.291C175.823 249.135 174.127 249.865 172.899 248.996C171.818 248.23 171.774 246.692 171.568 245.386C171.207 243.358 170.231 241.487 168.77 240.028C167.309 238.569 165.434 237.59 163.398 237.224C161.853 236.978 160.172 237.071 158.858 236.226C157.528 235.37 156.918 233.768 155.873 232.583C154.188 230.673 151.536 229.994 149.051 229.412L138.943 227.046C137.148 226.626 134.835 226.403 133.872 227.969C133.587 228.565 133.386 229.197 133.273 229.847C132.912 231.024 132.186 232.056 131.199 232.796C130.212 233.536 129.014 233.945 127.779 233.964C126.932 232.526 125.56 231.468 123.948 231.013C122.923 230.728 121.826 230.697 120.849 230.278C120.316 230.019 119.842 229.655 119.456 229.208C119.07 228.76 118.78 228.239 118.603 227.676C118.426 227.113 118.366 226.52 118.428 225.933C118.489 225.347 118.67 224.779 118.959 224.264C119.542 223.231 119.767 222.035 119.6 220.862C119.432 219.689 118.882 218.603 118.033 217.772C116.314 216.236 113.828 215.864 111.523 216.018C110.919 214.706 111.928 213.226 113.016 212.273C114.104 211.32 115.425 210.383 115.661 208.96C116.034 206.721 113.165 205.02 110.987 205.688C108.808 206.355 107.418 208.462 106.499 210.539C105.972 211.731 105.523 212.985 104.691 213.99C103.86 214.995 102.52 215.714 101.253 215.392C99.4594 214.935 98.7667 212.813 98.3697 211.013C97.8371 208.597 97.3014 206.147 97.413 203.677C97.5246 201.206 98.3611 198.668 100.191 196.996C103.173 194.27 107.747 194.537 111.771 194.972C110.82 193.905 111.055 192.108 112.072 191.104C112.609 190.629 113.254 190.291 113.952 190.121C114.65 189.95 115.378 189.951 116.075 190.124C117.288 190.376 118.38 191.026 119.177 191.971C120.32 193.359 120.645 195.234 121.51 196.809C122.374 198.385 124.317 199.729 125.908 198.884C127.282 198.154 127.5 196.256 127.158 194.743C126.816 193.23 126.09 191.759 126.214 190.213C126.45 187.263 129.521 185.488 132.231 184.273C134.941 183.058 138.044 181.424 138.473 178.496C138.488 177.922 138.596 177.355 138.795 176.817C139.095 176.341 139.513 175.95 140.008 175.681C147.917 170.476 155.957 165.208 164.996 162.364C165.467 162.216 165.522 162.381 166.001 162.265C166.672 161.879 166.227 160.811 165.584 160.381C164.941 159.951 164.082 159.621 163.918 158.867C163.799 158.312 164.127 157.768 164.212 157.207C164.421 155.829 162.766 154.557 161.48 155.108C160.754 154.15 162.191 153.038 163.353 152.719C166.841 151.763 170.422 151.181 174.035 150.982C174.452 150.916 174.879 150.988 175.251 151.187C175.857 151.606 175.78 152.566 175.35 153.163C174.92 153.761 174.251 154.136 173.715 154.641C173.129 155.209 172.712 155.926 172.508 156.715C172.304 157.503 172.321 158.332 172.557 159.111C174.443 160.066 176.494 161.049 178.583 160.713C180.672 160.376 182.526 158.039 181.544 156.173C180.629 154.435 177.883 154.043 177.411 152.138C176.858 149.907 180.028 147.924 179.314 145.739C179.001 144.782 178.044 144.219 177.309 143.528C176.441 142.681 175.851 141.593 175.615 140.406C175.38 139.218 175.511 137.988 175.991 136.876C174.794 137.086 173.564 137.007 172.404 136.645C171.244 136.284 170.188 135.651 169.325 134.799C167.73 133.197 166.458 130.669 164.194 130.741C162.116 130.807 160.327 133.221 158.384 132.484C157.906 132.303 157.402 131.934 156.939 132.15C156.787 132.248 156.66 132.38 156.567 132.534C156.473 132.688 156.416 132.862 156.4 133.041C155.906 135.392 156.756 138.07 155.469 140.101C154.069 142.311 150.831 142.617 149.134 144.61C148.213 145.692 147.856 147.15 147.009 148.291C146.162 149.431 144.365 150.156 143.349 149.162C143.848 148.14 143.985 146.979 143.736 145.87C143.487 144.76 142.867 143.767 141.978 143.054C141.035 142.441 140.018 141.948 138.951 141.587C137.759 141.085 136.625 140.456 135.569 139.711C135.04 139.393 134.61 138.935 134.327 138.388C134.104 137.703 134.134 136.961 134.412 136.296C134.928 134.825 135.837 133.522 137.041 132.527C138.246 131.533 139.701 130.885 141.248 130.654C142.601 130.471 144.176 130.535 145.071 129.509C145.545 128.966 145.794 128.144 146.481 127.924C146.921 127.836 147.378 127.892 147.783 128.083L152.834 129.853C153.397 130.107 154.017 130.209 154.633 130.15C154.938 130.109 155.216 129.955 155.412 129.718C155.608 129.481 155.706 129.179 155.688 128.873C155.526 128.038 154.236 127.637 154.353 126.795C154.419 126.522 154.566 126.275 154.776 126.088C156.598 124.156 158.827 122.649 161.303 121.676C163.779 120.702 166.44 120.286 169.096 120.456C169.734 121.499 168.726 122.733 167.887 123.623C167.048 124.513 166.374 126.103 167.388 126.788C167.804 127 168.267 127.103 168.733 127.09C169.977 127.257 171.185 127.622 172.312 128.171C174.057 128.927 175.769 129.755 177.447 130.653C177.299 129.551 177.158 128.391 177.577 127.36C177.996 126.33 179.188 125.522 180.23 125.923C181.233 126.31 181.748 127.633 182.817 127.754C184.243 127.916 184.805 125.818 184.21 124.518C183.614 123.218 182.435 122.129 182.336 120.703C182.27 119.741 182.638 118.548 181.866 117.966C181.591 117.791 181.28 117.682 180.956 117.648L161.689 114.118C160.545 113.908 158.892 114.069 158.842 115.226C158.813 115.872 159.393 116.511 159.136 117.105C158.862 117.739 157.962 117.681 157.307 117.905C156.29 118.253 155.78 119.455 155.877 120.522C156.056 121.581 156.468 122.588 157.084 123.471C155.831 122.949 153.933 122.853 152.68 122.331Z" fill="#090F3F"/>
<path d="M137.308 106.045C136.093 105.645 134.784 105.626 133.558 105.992C132.332 106.357 131.249 107.09 130.455 108.089C130.137 108.505 129.871 109.078 130.137 109.529C130.517 110.174 131.487 109.919 132.203 109.688C133.254 109.314 134.398 109.287 135.466 109.611C136.138 109.84 136.739 110.246 137.413 110.467C137.742 110.604 138.101 110.649 138.454 110.598C138.806 110.547 139.137 110.401 139.413 110.176C139.876 109.706 139.905 108.975 139.906 108.317C139.938 108.096 139.92 107.872 139.854 107.659C139.787 107.446 139.674 107.251 139.523 107.087C139.253 106.932 138.949 106.842 138.638 106.827C137.94 106.698 137.309 106.331 136.853 105.789" fill="#090F3F"/>
<path d="M144.255 104.119C143.983 104.105 143.712 104.16 143.468 104.279C143.223 104.399 143.014 104.58 142.86 104.803C142.706 105.027 142.612 105.286 142.588 105.556C142.563 105.826 142.609 106.098 142.721 106.345C143.556 106.572 144.428 106.628 145.286 106.512C145.713 106.445 146.112 106.255 146.431 105.963C146.75 105.672 146.975 105.293 147.078 104.875C146.069 105.058 145.027 104.86 144.156 104.319" fill="#090F3F"/>
<path d="M167.563 100.903C165.29 101.384 163.083 102.13 160.986 103.127C161.974 103.506 162.815 104.19 163.383 105.08C163.951 105.97 164.217 107.018 164.142 108.07C164.053 108.473 164.064 108.892 164.172 109.291C164.413 109.875 165.113 110.093 165.729 110.243C166.834 110.578 167.989 110.725 169.143 110.677C169.721 110.647 170.282 110.474 170.775 110.174C171.269 109.873 171.679 109.455 171.97 108.957C172.137 108.484 172.333 108.022 172.558 107.574C174.033 105.337 178.414 108.041 179.998 105.879C180.556 105.118 180.505 103.972 181.232 103.368C181.608 103.105 182.044 102.939 182.501 102.886C185.685 102.256 188.902 101.8 192.137 101.519C193.669 101.387 195.667 100.839 195.68 99.3066C189.907 98.1776 183.921 98.9795 178.653 101.588C176.755 102.534 174.245 104.525 172.416 103.27C171.732 102.801 171.766 101.535 170.824 101.007C169.86 100.467 168.585 100.686 167.563 100.903Z" fill="#090F3F"/>
<path d="M186.442 104.418L189.152 104.937C188.653 104.915 188.155 104.999 187.692 105.183C187.228 105.368 186.809 105.649 186.464 106.008C186.118 106.367 185.853 106.794 185.686 107.263C185.52 107.732 185.455 108.231 185.498 108.726C188.035 109.57 190.802 108.749 193.475 108.861C196.148 108.973 199.259 110.875 198.802 113.5C198.664 114.294 198.204 115.087 198.443 115.856C198.611 116.396 199.089 116.778 199.358 117.275C199.92 118.31 199.471 119.619 198.762 120.56C198.052 121.501 197.099 122.252 196.476 123.252C194.927 125.739 195.807 128.954 196.73 131.732C196.997 132.782 197.489 133.762 198.174 134.603C199.54 136.051 201.768 136.176 203.763 136.205C205.215 136.226 206.878 136.155 207.796 135.035C208.995 133.572 208.157 131.291 208.946 129.574C209.663 128.015 211.489 127.347 213.143 126.872C216.175 126.003 219.264 125.265 222.129 123.952C225.688 122.322 229.013 119.782 232.924 119.573C234.022 119.514 235.146 119.643 236.203 119.343C237.26 119.044 238.264 118.134 238.184 117.043C238.116 116.11 237.323 115.426 236.704 114.723C236.085 114.02 235.599 112.939 236.168 112.195L246.42 110.289C245.693 108.317 245.127 105.719 246.797 104.436C247.399 103.973 248.206 103.788 248.719 103.228C249.593 102.273 249.153 100.63 248.144 99.818C247.135 99.0064 245.77 98.818 244.478 98.7111C239.982 98.3394 235.462 98.585 230.958 98.8308C222.154 99.3114 213.35 99.7919 204.546 100.272C202.774 100.369 200.728 100.221 199.102 100.823C197.726 101.333 196.748 102.269 195.174 102.598C192.268 103.204 189.071 102.794 186.442 104.418Z" fill="#090F3F"/>
<path d="M234.989 125.748C234.713 125.704 234.431 125.768 234.2 125.926C234.048 126.093 233.958 126.307 233.944 126.532C233.769 127.525 233.977 128.548 234.527 129.394C234.807 129.81 235.194 130.143 235.647 130.359C236.1 130.576 236.603 130.667 237.104 130.625C238.324 130.47 239.224 129.433 240.345 128.927C242.074 128.149 249.417 126.934 244.338 124.202C242.587 123.26 241.456 124.091 240.077 124.712C238.507 125.511 236.748 125.869 234.989 125.748Z" fill="#090F3F"/>
<path d="M279.477 102.876C278.884 103.117 278.388 103.547 278.066 104.099C277.918 104.379 277.884 104.705 277.97 105.01C278.057 105.314 278.257 105.574 278.531 105.736C278.753 105.816 278.987 105.853 279.223 105.845L281.634 105.917C282.659 105.947 283.939 106.164 284.214 107.147C284.418 107.877 283.961 108.815 284.513 109.337C284.75 109.52 285.035 109.63 285.333 109.656C286.128 109.859 286.957 109.886 287.763 109.734C289.518 109.265 288.596 108.199 289.148 107.249C289.994 105.796 289.848 106.676 291.337 105.843C292.438 105.228 293.86 104.113 292.941 102.545C291.344 99.8199 281.834 101.705 279.477 102.876Z" fill="#090F3F"/>
<path d="M327.075 101.505L325.675 101.692C322.517 102.111 319.342 102.535 316.3 103.479C317.617 103.997 318.998 104.335 320.406 104.482C321.181 104.52 321.951 104.629 322.706 104.808C324.049 105.206 325.403 106.234 326.7 105.707C327.505 105.381 327.768 104.546 328.434 104.104C328.895 103.799 330.64 103.305 330.835 102.997C332.413 100.505 328.288 101.344 327.075 101.505Z" fill="#090F3F"/>
<path d="M333.224 107.843C331.354 108.884 329.618 110.15 328.057 111.611C327.399 112.227 326.727 112.993 326.786 113.89C326.866 115.083 328.141 115.774 329.247 116.24L333.723 118.127C334.266 117.365 333.769 116.313 333.208 115.564C332.647 114.815 331.98 113.949 332.228 113.047C332.511 112.019 333.77 111.668 334.826 111.491C336.547 111.202 341.189 111.225 340.631 108.464C339.974 105.21 334.952 106.881 333.224 107.843Z" fill="#090F3F"/>
<path d="M332.324 291.977C331.898 293.206 331.857 294.653 332.595 295.726C333.422 296.929 335.077 297.378 336.509 297.073C337.936 296.695 339.207 295.881 340.144 294.746C341.001 293.794 341.706 292.718 342.235 291.553C342.972 289.738 343.492 287.843 343.784 285.907L345.174 278.64C345.485 277.016 345.473 272.037 342.475 273.66C341.656 274.103 339.76 277.602 338.902 278.594C337.355 280.382 337.151 282.117 336.337 284.284C335.317 286.998 333.267 289.259 332.324 291.977Z" fill="#090F3F"/>
<path d="M490.649 329.163C489.668 328.782 488.716 328.331 487.8 327.813C486.882 330.327 486.394 332.976 486.356 335.65L493.068 331.868C494.078 331.299 495.222 330.508 495.2 329.353C495.21 329.211 495.18 329.068 495.115 328.941C495.049 328.814 494.951 328.706 494.829 328.63C494.68 328.57 494.518 328.551 494.359 328.575C493.364 328.658 492.456 329.145 491.517 329.484C490.578 329.824 489.481 330.003 488.619 329.5" fill="#090F3F"/>
<path d="M526.055 331.409C525.318 331.608 524.599 331.865 523.903 332.178C522.362 332.958 521.315 334.44 519.929 335.468C518.602 336.452 517.006 336.992 515.438 337.517C514.977 337.923 515.189 338.74 515.689 339.097C516.228 339.401 516.845 339.54 517.462 339.493C519.09 339.529 520.806 339.545 522.232 338.762C523.036 338.242 523.788 337.648 524.478 336.987C526.146 335.601 528.149 334.687 530.131 333.803C530.853 333.532 531.52 333.135 532.101 332.63C533.347 331.408 533.435 329.523 531.638 329.107C530.187 328.771 527.437 330.963 526.055 331.409Z" fill="#090F3F"/>
<path d="M541.699 321.233C541.78 320.392 541.667 319.544 541.371 318.753C541.074 317.961 540.6 317.247 539.986 316.665C539.968 318.347 539.916 320.14 538.966 321.531C538.289 322.522 537.227 323.192 536.485 324.136C535.744 325.08 535.414 326.577 536.285 327.406C536.841 327.827 537.518 328.06 538.217 328.069C539.949 328.272 541.954 328.385 543.169 327.139C543.832 326.459 544.154 325.451 544.963 324.951C545.264 324.825 545.533 324.634 545.75 324.39C546.084 323.862 545.554 323.165 544.956 322.975C544.359 322.784 543.701 322.874 543.101 322.693C542.501 322.512 541.95 321.84 542.258 321.296" fill="#090F3F"/>
<path d="M513.895 259.546C512.986 259.766 512.045 259.821 511.117 259.709C509.575 259.427 508.374 258.27 507.129 257.321C504.17 255.077 500.573 253.825 496.854 253.746C493.471 253.682 490.057 254.595 486.734 253.958C486.951 255.16 487.984 256.062 489.087 256.598C490.189 257.134 491.406 257.404 492.513 257.929C494.287 258.778 495.694 260.235 496.476 262.034C496.833 262.863 497.057 263.765 497.598 264.489C498.702 265.969 500.796 266.294 502.643 266.173C505.052 266.015 507.568 265.326 509.809 266.219C511.523 266.903 512.75 268.397 514.182 269.559C515.613 270.721 517.63 271.583 519.273 270.745C517.566 270.194 516.08 269.115 515.032 267.664C513.985 266.213 513.43 264.467 513.45 262.68C515.062 262.828 519.705 262.77 519.455 260.043C519.243 257.731 515.279 259.297 513.895 259.546Z" fill="#090F3F"/>
<path d="M492.805 278.354C493.091 276.791 494.657 275.41 494.169 273.897C493.832 272.851 492.614 272.334 491.51 272.309C490.407 272.283 489.323 272.61 488.22 272.641C487.502 272.603 486.782 272.613 486.065 272.671C483.876 273.03 482.526 275.315 480.462 276.128C479.207 276.622 477.797 276.528 476.492 276.869C473.53 277.645 471.655 280.432 469.584 282.68C466.238 286.295 461.879 288.827 457.071 289.946C455.387 290.335 453.576 290.583 452.237 291.673C450.464 293.115 450.028 295.588 449.633 297.834C448.544 304.037 446.878 310.125 444.658 316.021L451.693 316.915C453.03 317.085 454.416 317.252 455.705 316.857C456.641 316.505 457.528 316.035 458.343 315.457C461.476 313.521 464.983 312.26 468.636 311.758C470.478 311.506 472.409 311.46 474.138 312.142C475.867 312.824 477.35 314.37 477.495 316.216C478.242 315.984 479.039 315.959 479.8 316.143C480.561 316.328 481.257 316.714 481.814 317.262C482.916 318.379 483.637 319.813 483.876 321.361C484.061 322.319 484.247 323.468 485.14 323.87C485.868 324.198 486.704 323.844 487.501 323.781C490.206 323.565 492.45 326.706 495.108 326.165C497.959 325.585 498.659 321.333 501.44 320.482C503.038 319.992 505.279 320.587 506.043 319.108C506.718 317.803 505.372 316.299 505.511 314.838C505.682 313.04 507.812 312.277 509.454 311.51C515.115 308.865 517.801 301.278 515.058 295.682C513.433 292.367 510.235 289.757 509.644 286.115C509.19 283.313 510.299 280.045 508.505 277.839C507.592 276.717 506.047 276.098 505.504 274.759C505.162 273.916 505.299 272.96 505.115 272.07C504.931 271.18 504.151 270.248 503.268 270.479C500.706 271.149 499.888 279.032 498.516 280.948C496.43 283.859 492.148 281.941 492.805 278.354Z" fill="#090F3F"/>
<path d="M445.436 262.525C444.56 262.28 443.604 262.039 442.765 262.389C441.926 262.738 441.436 263.965 442.109 264.574C447.378 264.369 452.679 264.166 457.903 264.879C463.922 265.7 469.879 267.733 475.924 267.135C472.471 266.12 468.96 265.309 465.411 264.706L459.493 263.58C457.906 263.249 456.301 263.002 454.687 262.841C451.311 262.563 448.756 263.451 445.436 262.525Z" fill="#090F3F"/>
<path d="M450.711 244.252C450.273 244.216 449.732 244.185 449.505 244.559C449.289 244.917 449.537 245.39 449.42 245.791C449.262 246.339 448.541 246.479 447.973 246.404C447.405 246.33 446.79 246.151 446.287 246.424C446.032 246.597 445.84 246.849 445.741 247.14C445.641 247.431 445.639 247.747 445.735 248.04C445.941 248.62 446.273 249.149 446.709 249.586C447.453 250.52 448.301 251.367 449.237 252.111C451.048 253.442 453.501 254.083 454.641 256.015C454.802 256.39 455.05 256.721 455.363 256.983C455.911 257.328 456.625 257.065 457.214 256.797L459.281 255.857C459.653 255.723 459.985 255.498 460.247 255.203C460.719 254.565 460.429 253.658 460.033 252.971C459.636 252.283 459.129 251.572 459.214 250.785C459.366 249.38 461.18 248.843 461.925 247.641C462.677 246.429 462.188 244.868 462.274 243.447C462.376 241.784 463.425 239.622 461.737 238.38C460.303 237.324 458.932 238.3 457.902 239.465C455.73 241.923 454.703 244.584 450.711 244.252Z" fill="#090F3F"/>
<path d="M463.254 219.413C463.959 220.758 465.43 221.561 466.199 222.871C467.033 224.291 466.938 226.125 467.843 227.501C468.771 228.913 470.639 229.663 471.159 231.269C471.728 233.022 470.438 235.153 471.466 236.685C471.658 236.936 471.899 237.144 472.176 237.296C472.453 237.449 472.758 237.542 473.073 237.571C473.388 237.6 473.705 237.563 474.005 237.464C474.305 237.364 474.581 237.203 474.815 236.992C475.249 236.522 475.48 235.902 475.462 235.265C475.443 234.627 475.174 234.022 474.714 233.578C474.105 233.026 473.232 232.787 472.724 232.142C472.459 231.77 472.283 231.342 472.208 230.892C471.931 229.594 471.975 228.248 472.337 226.971C472.473 226.646 472.508 226.289 472.436 225.945C472.208 225.283 471.307 225.236 470.675 224.929C469.24 224.231 469.275 222.214 469.526 220.644C469.359 221.69 465.619 219.911 465.227 219.319C464.449 218.143 464.873 215.873 464.719 214.573C463.039 215.379 462.391 217.769 463.254 219.413Z" fill="#090F3F"/>
<path d="M425.575 240.109C424.885 239.339 423.845 238.534 422.919 238.998C422.213 239.352 422.019 240.325 422.296 241.063C422.633 241.779 423.152 242.395 423.802 242.85C425.73 244.434 427.807 245.864 429.49 247.705C432.501 251 434.096 255.446 437.371 258.481C438.029 259.185 438.9 259.655 439.852 259.819C440.806 259.907 441.877 259.299 441.987 258.351C442.077 257.57 441.531 256.871 440.997 256.293C439.725 254.915 438.332 253.647 437.131 252.207C436.576 251.654 436.228 250.929 436.143 250.152C436.137 249.377 436.847 248.566 437.601 248.758C436.684 248.524 436.003 247.003 434.657 246.717C433.532 246.477 433.26 247.171 431.921 246.599C429.367 245.509 427.363 242.102 425.575 240.109Z" fill="#090F3F"/>
<path d="M485.582 165.181C484.849 164.964 484.129 164.708 483.424 164.413C481.528 163.846 479.019 165.234 479.272 167.19C479.44 168.489 480.654 169.364 481.325 170.491C482.319 172.162 482.054 174.282 481.532 176.153C481.403 176.733 481.159 177.281 480.814 177.764C480.331 178.275 479.755 178.688 479.115 178.981C476.554 180.411 474.296 182.322 472.465 184.607C472.266 184.818 472.128 185.078 472.064 185.361C471.973 186.021 472.64 186.502 473.016 187.052C473.853 188.275 473.248 189.921 473.331 191.399C473.318 191.608 473.359 191.816 473.45 192.005C473.541 192.194 473.679 192.356 473.851 192.477C474.356 192.732 474.953 192.299 475.227 191.806C476.134 190.169 475.45 187.541 477.153 186.752C477.475 186.603 477.865 186.54 478.08 186.258C478.42 185.811 478.092 185.15 478.264 184.616C478.524 183.814 479.625 183.778 480.47 183.814C481.926 183.874 483.381 183.681 484.771 183.243C485.316 183.114 485.811 182.829 486.194 182.423C486.703 181.79 486.658 180.891 486.556 180.087C486.047 176.079 484.772 172.206 482.8 168.675C484.296 168.865 485.922 169.03 487.212 168.254C487.935 167.819 488.801 166.52 488.443 165.636C487.876 164.237 486.853 165.414 485.582 165.181Z" fill="#090F3F"/>
<path d="M293.901 187.224C294.08 188.179 294.256 189.185 293.942 190.106C293.627 191.026 292.638 191.795 291.704 191.513C290.979 191.294 290.56 190.568 290.045 190.015C287.182 186.937 280.722 188.719 278.954 184.911C278.232 183.357 278.722 181.495 278.23 179.855C277.919 178.907 277.301 178.088 276.473 177.528C275.644 176.967 274.653 176.697 273.653 176.758C272.741 176.89 271.854 177.153 271.019 177.541C265.427 179.771 259.556 181.234 253.568 181.888C252.43 181.957 251.305 182.161 250.215 182.495C247.756 183.383 246.076 185.652 244.881 187.969C243.685 190.285 242.803 192.792 241.2 194.85C239.515 197.013 237.155 198.527 234.953 200.165C234.105 200.71 233.398 201.447 232.892 202.316C232.415 203.292 232.442 204.427 232.479 205.512L232.929 218.688C232.986 220.383 233.059 222.139 233.821 223.655C234.772 225.549 236.651 226.79 237.955 228.463C239.285 230.182 239.978 232.306 239.917 234.476C239.889 235.348 239.802 236.38 240.484 236.928C240.899 237.196 241.385 237.335 241.879 237.328L259.779 238.786C262.928 239.043 266.417 239.465 268.473 241.854C269.443 242.981 270.222 244.602 271.708 244.723C272.346 244.775 272.966 244.515 273.604 244.464C275.212 244.337 276.625 245.553 277.517 246.892C278.867 248.933 279.479 251.37 279.254 253.804C279.108 255.331 278.632 256.816 278.53 258.347C278.14 264.172 283.099 269.234 283.195 275.071C283.252 278.505 281.615 281.713 280.019 284.757C282.595 288.643 280.485 293.817 281.511 298.36C282.484 302.669 286.092 306.043 286.992 310.368C287.403 312.348 287.427 314.785 289.18 315.805C289.95 316.179 290.803 316.349 291.657 316.299C296.812 316.36 301.907 315.205 306.527 312.928C308.695 311.857 310.942 310.257 311.321 307.876C311.627 305.957 310.649 303.809 311.644 302.137C312.817 300.166 315.821 300.322 317.546 298.807C320.345 296.349 318.163 291.66 319.297 288.119C320.316 284.936 323.826 283.246 325.565 280.389C326.25 279.16 326.741 277.835 327.022 276.458C327.819 273.167 328.315 269.811 328.504 266.431C328.55 264.378 328.702 262.328 328.959 260.29C330.835 248.687 342.354 240.918 346.094 229.771C346.451 228.707 346.619 227.289 345.668 226.687C345.104 226.419 344.465 226.352 343.857 226.498L335.606 227.534C334.581 227.662 333.495 227.783 332.553 227.359C331.612 226.935 330.938 225.749 331.437 224.849C332.838 222.321 329.955 219.127 328.675 216.536C325.226 209.561 321.118 202.928 316.408 196.727C316.107 196.408 315.918 196 315.87 195.564L318.212 195.642C317.422 192.817 316.117 189.726 313.361 188.693C311.808 188.111 310.089 188.312 308.432 188.402C303.686 188.66 298.598 187.947 293.901 187.224Z" fill="#090F3F"/>
<path d="M308.436 123.571C309.677 124.884 311.069 126.276 312.866 126.505C316.039 126.909 318.321 123.642 319.774 120.803C319.828 121.527 320.163 122.201 320.708 122.682C321.253 123.164 321.966 123.414 322.694 123.381C323.477 123.249 324.225 122.958 324.89 122.526C331.178 119.104 338.22 117.291 345.386 117.25C345.317 116.709 345.452 116.162 345.764 115.715C346.076 115.268 346.543 114.951 347.076 114.827C348.533 114.539 349.845 115.793 350.548 117.096C351.251 118.399 351.689 119.909 352.806 120.884C353.922 121.86 356.084 121.817 356.525 120.405C356.948 119.049 355.53 117.893 354.351 117.094C353.173 116.294 351.931 114.815 352.724 113.635C358.745 112.308 364.803 110.976 370.963 110.712C372.012 110.749 373.057 110.569 374.033 110.186C374.973 109.727 375.72 108.684 375.467 107.673C374.123 107.988 372.715 107.897 371.422 107.411C370.13 106.926 369.012 106.069 368.212 104.948C376.76 104.246 385.852 103.647 393.427 107.652C394.336 109.596 389.703 111.212 390.943 112.965C391.338 113.524 392.13 113.59 392.817 113.602C398.081 113.7 403.376 113.795 408.581 113.004C410.483 112.715 412.404 112.306 414.314 112.541C417.495 112.931 420.215 115.045 423.345 115.734C424.618 116.014 426.047 116.024 427.12 115.286C428.194 114.548 428.655 112.869 427.776 111.91C430.722 109.034 435.612 109.747 439.499 111.124C443.386 112.5 447.068 114.72 451.182 115.027C454.133 115.247 457.124 114.457 460.039 114.959C461.871 115.275 463.576 116.086 465.366 116.585C468.752 117.528 472.334 117.329 475.85 117.374C484.82 117.495 493.693 119.25 502.028 122.554C503.112 122.906 504.106 123.49 504.938 124.266C505.714 125.093 506.109 126.378 505.588 127.384L496.975 126.131C497.787 127.721 499.886 127.992 501.591 128.541C503.296 129.09 505.064 130.965 504.039 132.429C502.192 131.843 500.518 133.682 499.585 135.374C498.651 137.066 497.514 139.093 495.578 139.196C493.845 139.288 491.748 137.819 490.618 139.131C492.179 141.092 493.516 143.22 494.604 145.476C495.72 147.792 496.515 150.71 495.006 152.794C494.769 153.166 494.409 153.444 493.988 153.58C492.756 153.891 491.955 152.39 491.071 151.48C489.958 150.333 488.274 150.009 486.765 149.471C485.257 148.933 483.669 147.875 483.551 146.285C483.477 145.295 484.002 144.375 484.389 143.46C485.038 141.918 485.322 140.248 485.219 138.579C485.134 137.237 484.756 135.84 483.788 134.902C482.82 133.964 481.148 133.666 480.108 134.525C479.623 134.926 479.234 135.567 478.605 135.591C477.492 135.634 476.637 133.702 475.742 134.361C475.847 135.064 475.7 135.781 475.328 136.387C472.656 138.702 468.551 137.723 465.106 138.54C463.468 139.007 461.9 139.689 460.443 140.568C459.898 140.8 459.434 141.188 459.11 141.682C458.68 142.514 459.154 143.58 459.912 144.133C460.716 144.624 461.619 144.931 462.556 145.032C466.756 145.824 471.017 147.05 474.332 149.736C477.648 152.422 479.822 156.862 478.773 160.988L470.491 153.108C470.806 156.417 470.984 159.735 471.027 163.062C471.08 163.711 470.991 164.365 470.764 164.976C470.174 166.275 468.574 166.712 467.171 166.998C466.781 167.072 466.411 167.227 466.086 167.453C465.76 167.68 465.487 167.972 465.283 168.311C465.078 168.65 464.949 169.028 464.902 169.421C464.855 169.814 464.892 170.212 465.011 170.589C465.509 172.206 466.751 173.467 467.889 174.723C469.026 175.979 470.146 177.407 470.294 179.092C470.443 180.777 469.167 182.676 467.472 182.559C466.188 182.47 465.235 181.325 464.687 180.164C464.139 179.004 463.813 177.711 462.99 176.725C460.498 173.741 454.901 175.02 452.669 171.838C452.1 172.481 451.705 173.258 451.522 174.095C451.34 174.933 451.375 175.802 451.625 176.622C452.663 175.975 454.085 176.576 454.865 177.517C455.645 178.458 456.013 179.664 456.626 180.72C457.453 182.146 458.769 183.41 458.884 185.052C458.854 185.673 458.864 186.295 458.916 186.915C459.121 187.91 459.965 188.624 460.551 189.456C461.914 191.391 461.846 194.05 460.968 196.246C460.09 198.442 458.512 200.277 456.949 202.056C454.219 205.163 451.434 208.252 448.197 210.832C447.274 211.568 446.288 212.292 445.713 213.322C445.138 214.351 445.109 215.796 445.992 216.579C445.36 216.61 444.226 216.92 443.594 216.952C443.371 214.425 443.323 211.887 443.449 209.354C440.953 208.161 438.266 211.357 438.588 214.095C438.91 216.833 440.899 219.03 442.315 221.399C443.35 223.131 444.12 225.151 443.774 227.137C443.429 229.123 441.648 230.956 439.631 230.78C436.423 230.502 435.081 225.916 431.905 225.391C431.625 225.326 431.331 225.355 431.069 225.474C430.597 225.731 430.515 226.36 430.489 226.895C430.359 229.52 430.246 232.25 431.276 234.671C432.781 238.213 436.672 241.187 435.856 244.946C431.46 242.911 429.174 238.003 428.136 233.287C427.098 228.572 426.926 223.622 425.065 219.164C423.653 220.967 420.684 219.477 419.393 217.585C418.17 215.792 417.416 213.718 416.229 211.901C415.042 210.084 413.224 208.457 411.049 208.357C408.769 208.252 406.791 209.81 405.052 211.282C403.622 212.493 402.154 213.751 401.318 215.424C400.102 217.859 400.42 220.73 400.361 223.449C400.298 226.389 399.672 229.49 397.66 231.642C395.648 233.794 391.935 234.544 389.716 232.604C388.557 231.592 387.996 230.079 387.496 228.627C385.088 221.627 383.082 214.496 381.488 207.269C381.115 208.918 379.661 211.045 378.271 210.073C377.959 209.812 377.707 209.488 377.53 209.122C374.938 204.747 370.138 202.123 365.288 200.55C360.438 198.977 355.335 198.243 350.539 196.514C347.851 195.544 345.284 194.271 342.888 192.719C342.277 193.612 341.92 194.654 341.856 195.733C341.791 196.812 342.02 197.888 342.52 198.848C343.584 200.724 345.991 201.809 348.052 201.154C349.117 200.815 350.017 200.078 351.073 199.715C352.13 199.351 353.548 199.53 354.01 200.544C354.453 201.514 353.784 202.688 354.116 203.701C354.621 205.244 356.958 205.363 357.775 206.767C358.384 207.812 357.883 209.199 357.015 210.042C356.147 210.885 354.988 211.348 353.928 211.935C350.49 213.839 348.044 217.09 345.039 219.619C342.033 222.148 337.793 223.994 334.211 222.372C335.065 218.067 329.915 214.906 328.968 210.621C328.656 209.21 328.818 207.712 328.373 206.337C327.728 204.347 325.955 202.979 324.5 201.471C322.736 199.622 321.362 197.439 320.458 195.053C319.554 192.666 319.14 190.123 319.239 187.574C319.318 185.803 319.645 184.003 319.239 182.277C318.834 180.551 317.399 178.88 315.62 178.958C311.558 179.137 306.44 179.438 304.309 175.989C303.548 174.759 303.217 172.956 304.317 172.013C305.093 171.348 306.238 171.411 307.257 171.51L316.41 172.407C318.551 172.617 320.865 172.79 322.702 171.675C324.539 170.561 325.335 167.603 323.634 166.291C322.391 165.333 320.164 165.385 319.803 163.862C319.502 162.594 320.912 161.154 320.151 160.094C319.604 159.334 318.377 159.545 317.633 160.115C316.889 160.685 316.349 161.518 315.517 161.949C314.056 162.706 312.311 161.986 310.739 161.496C309.168 161.007 307.061 160.965 306.299 162.419C305.447 164.044 307.055 166.174 306.209 167.802C305.091 169.956 301.303 168.73 299.733 170.582C297.93 172.707 300.959 175.876 300.351 178.592C299.575 178.974 298.713 179.15 297.848 179.102C296.984 179.053 296.146 178.782 295.418 178.316C294.702 177.831 294.131 177.161 293.767 176.379C293.402 175.597 293.257 174.731 293.348 173.873C293.498 172.652 294.137 171.405 293.709 170.251C293.363 169.317 292.422 168.762 291.547 168.281L282.652 163.386C281.826 164.912 282.87 166.803 284.176 167.949C285.482 169.094 287.117 169.957 287.975 171.465C288.518 172.51 288.639 173.721 288.315 174.852C287.991 175.983 287.245 176.949 286.231 177.551C286.104 177.638 285.959 177.697 285.807 177.724C285.655 177.75 285.498 177.743 285.349 177.704C285.207 177.621 285.083 177.51 284.985 177.379C284.887 177.247 284.816 177.097 284.777 176.938C283.208 172.939 280.852 168.996 277.084 166.907C273.317 164.818 267.904 165.247 265.434 168.766C264.847 169.602 264.453 170.555 263.942 171.439C261.227 176.134 255.405 178.357 249.966 178.212C249.433 178.242 248.904 178.118 248.441 177.855C247.562 177.251 247.601 175.968 247.736 174.913L248.307 170.434C248.422 169.535 248.588 168.54 249.303 167.979C250.31 167.188 251.764 167.687 253.047 167.669C254.019 167.623 254.954 167.281 255.724 166.689C256.495 166.097 257.064 165.284 257.354 164.359C257.614 163.424 257.612 162.438 257.35 161.504C257.087 160.571 256.574 159.727 255.865 159.063C255.277 158.512 254.488 157.821 254.799 157.08C254.922 156.875 255.09 156.699 255.289 156.565C255.489 156.432 255.715 156.343 255.953 156.306C258.258 155.639 260.693 155.465 262.96 154.678C265.227 153.892 267.425 152.283 267.962 149.953C268.126 149.239 268.201 148.374 268.845 148.02C269.168 147.885 269.515 147.814 269.866 147.813C271.095 147.639 272.214 147.013 273.002 146.058C273.791 145.104 274.192 143.89 274.127 142.656C275.213 141.9 276.735 142.456 277.786 143.26C278.837 144.064 279.765 145.126 281.043 145.472C283.426 146.118 285.729 144.017 288.199 144.008C289.237 144.003 290.312 144.369 291.289 144.019C292.28 143.663 292.871 142.681 293.632 141.956C294.392 141.231 295.726 140.788 296.428 141.57L295.83 137.161C297.034 137.463 298.289 137.506 299.51 137.286C300.732 137.066 301.893 136.589 302.914 135.885L295.188 133.286C294.919 133.219 294.671 133.087 294.466 132.901C293.904 132.299 294.462 131.361 294.919 130.676C296.011 129.038 296.195 126.341 294.398 125.525C293.172 124.969 291.764 125.637 290.587 126.29L284.948 129.421C284.769 130.488 286.08 131.093 286.892 131.812C287.383 132.247 287.731 132.82 287.89 133.455C288.048 134.091 288.01 134.759 287.78 135.372C287.55 135.986 287.139 136.515 286.602 136.892C286.064 137.269 285.424 137.474 284.767 137.482C285.138 137.963 285.396 138.521 285.522 139.114C285.647 139.708 285.637 140.322 285.492 140.911L281.698 141.182C281.273 141.268 280.83 141.182 280.468 140.943C280.062 140.584 280.117 139.955 280.023 139.423C279.796 138.139 278.533 137.238 277.244 137.008C275.955 136.777 274.636 137.073 273.359 137.365C272.817 137.559 272.222 137.545 271.69 137.326C271.384 137.129 271.152 136.837 271.029 136.496C270.469 135.145 270.993 133.557 271.891 132.401C272.79 131.246 274.021 130.401 275.126 129.439C277.768 127.13 279.71 124.131 280.731 120.781C282.82 119.91 284.982 118.726 287.07 117.855C290.29 116.232 293.901 115.535 297.497 115.843L304.569 115.978C306.663 116.018 308.814 116.069 310.75 116.864C312.687 117.659 314.388 119.378 314.522 121.459C314.562 121.695 314.542 121.937 314.462 122.162C314.383 122.388 314.247 122.59 314.068 122.749C313.795 122.897 313.485 122.967 313.174 122.95C311.221 123.018 310.388 123.502 308.436 123.571Z" fill="#090F3F"/>
<path d="M252.061 145.643C252.337 145.383 252.536 145.052 252.636 144.686C252.735 144.32 252.732 143.935 252.625 143.571C251.953 143.312 251.221 143.246 250.513 143.379C249.805 143.512 249.148 143.84 248.617 144.324C248.198 144.747 247.837 145.222 247.543 145.738C246.613 147.248 245.791 149.052 246.33 150.739C246.374 150.923 246.454 151.097 246.566 151.25C246.678 151.402 246.82 151.531 246.983 151.629C247.224 151.725 247.485 151.766 247.744 151.747C248.768 151.746 249.791 151.683 250.807 151.56C251.431 151.484 252.156 151.308 252.397 150.73C252.714 149.97 251.947 149.11 252.171 148.318C252.318 147.963 252.541 147.645 252.824 147.386C252.965 147.255 253.073 147.093 253.14 146.914C253.207 146.734 253.23 146.542 253.21 146.351C253.119 145.979 252.548 145.768 252.342 146.091" fill="#090F3F"/>
<path d="M257.37 138.79C256.46 138.582 255.523 138.523 254.594 138.616C254.389 138.61 254.185 138.656 254.003 138.75C253.826 138.88 253.698 139.065 253.638 139.275C253.442 139.902 253.49 140.58 253.773 141.173C254.056 141.766 254.553 142.231 255.165 142.475C255.498 142.552 255.818 142.679 256.112 142.854C256.897 143.461 256.396 144.7 256.545 145.679C256.712 146.777 257.78 147.699 257.584 148.793C257.43 149.655 256.505 150.337 256.654 151.2C256.81 152.103 257.961 152.375 258.879 152.447C259.411 152.54 259.958 152.477 260.455 152.267C260.954 151.928 261.308 151.417 261.45 150.833C261.826 149.719 261.984 148.544 261.915 147.371C261.911 146.838 261.777 146.313 261.523 145.843C261.247 145.471 260.94 145.122 260.607 144.799C258.849 142.762 260.7 139.724 257.37 138.79Z" fill="#090F3F"/>
<path opacity="0.8" d="M488.591 298.336C488.591 298.336 353.918 221.358 295.939 235.943C295.939 235.943 173.066 249.111 158.825 278.079C158.825 278.079 119.766 156.535 105.526 152.483" stroke="#CF1257" stroke-width="2" stroke-miterlimit="10"/>
<path d="M105.526 158.358C108.784 158.358 111.426 155.728 111.426 152.483C111.426 149.239 108.784 146.609 105.526 146.609C102.268 146.609 99.6265 149.239 99.6265 152.483C99.6265 155.728 102.268 158.358 105.526 158.358Z" fill="#CF1257"/>
<path d="M158.826 283.954C162.084 283.954 164.725 281.323 164.725 278.079C164.725 274.835 162.084 272.204 158.826 272.204C155.567 272.204 152.926 274.835 152.926 278.079C152.926 281.323 155.567 283.954 158.826 283.954Z" fill="#CF1257"/>
<path opacity="0.8" d="M158.826 278.079C181.407 218.117 384.84 151.673 384.84 151.673C355.952 158.966 295.94 235.944 295.94 235.944C295.94 235.944 168.997 143.976 105.526 152.484C105.526 152.484 385.043 161.599 488.591 298.336" stroke="#CF1257" stroke-width="2" stroke-miterlimit="10"/>
<path d="M384.84 157.548C388.098 157.548 390.739 154.918 390.739 151.673C390.739 148.429 388.098 145.799 384.84 145.799C381.581 145.799 378.94 148.429 378.94 151.673C378.94 154.918 381.581 157.548 384.84 157.548Z" fill="#CF1257"/>
<path d="M488.591 304.211C491.849 304.211 494.49 301.581 494.49 298.336C494.49 295.092 491.849 292.462 488.591 292.462C485.332 292.462 482.691 295.092 482.691 298.336C482.691 301.581 485.332 304.211 488.591 304.211Z" fill="#CF1257"/>
<path d="M295.939 241.818C299.198 241.818 301.839 239.188 301.839 235.944C301.839 232.699 299.198 230.069 295.939 230.069C292.681 230.069 290.04 232.699 290.04 235.944C290.04 239.188 292.681 241.818 295.939 241.818Z" fill="#CF1257"/>
</g>
<defs>
<clipPath id="clip0">
<rect width="580" height="429" fill="white"/>
</clipPath>
</defs>
</svg>
