<svg width="80" height="80" viewBox="0 0 80 80" fill="none" xmlns="http://www.w3.org/2000/svg">
<path d="M68.8162 4.2262H11.1838C5.78586 4.2262 0 7.16761 0 15.41V54.0363C0 62.2787 5.78586 65.2201 11.1838 65.2201H32.5172V72.3312H28.9616C28.0111 72.3312 27.2404 73.102 27.2404 74.0525C27.2404 75.003 28.0111 75.7737 28.9616 75.7737H51.6848C52.6354 75.7737 53.4061 75.003 53.4061 74.0525C53.4061 73.1017 52.6354 72.3312 51.6848 72.3312H47.4828V65.2201H68.8162C77.0586 65.2201 80 59.4343 80 54.0363V15.41C80 7.16761 74.2141 4.2262 68.8162 4.2262ZM44.0404 72.3312H35.9596V65.2201H44.0404V72.3312ZM76.5576 54.0363C76.5576 56.3636 75.798 61.7777 68.8162 61.7777H11.1838C8.85657 61.7777 3.44242 61.0181 3.44242 54.0363V51.5959H76.5576V54.0363ZM76.5576 48.1535H3.44242V15.41C3.44242 8.42822 8.85657 7.66862 11.1838 7.66862H68.8162C71.1434 7.66862 76.5576 8.42822 76.5576 15.41V48.1535Z" fill="#CF1257"/>
<path d="M52.5153 19.0111C52.5133 19.0067 52.5111 19.0022 52.5091 18.998C48.916 12.134 40.4386 9.48244 33.5747 13.0758C28.9636 15.4897 26.0679 20.258 26.0525 25.4627C26.0525 26.4087 26.8196 27.1758 27.7657 27.1758H40C40.2757 27.1758 40.5475 27.1093 40.7919 26.9818L51.701 21.293C52.5559 20.8877 52.9206 19.8663 52.5153 19.0111ZM39.5798 23.7172H29.5596C30.4117 18.6125 34.8246 14.8689 40 14.8606C43.3331 14.8556 46.4729 16.4253 48.4687 19.095L39.5798 23.7172Z" fill="#CF1257"/>
<path d="M54.0768 24.6708C53.6465 23.8281 52.6145 23.4938 51.7719 23.9241C51.7699 23.9251 51.7677 23.9263 51.7656 23.9273L41.2283 29.4223H29.3495C28.4034 29.4223 27.6364 30.1893 27.6364 31.1354C27.6325 38.8831 33.9101 45.1667 41.6578 45.1705C49.4054 45.1744 55.6891 38.8968 55.6929 31.1491C55.6929 31.1445 55.6929 31.1399 55.6929 31.1352C55.6883 28.8811 55.1335 26.6621 54.0768 24.6708ZM41.6812 41.7211C41.6596 41.7213 41.638 41.7213 41.6161 41.7213C36.4357 41.7118 32.0208 37.9596 31.1757 32.8485H41.6161C41.8919 32.8485 42.1636 32.7821 42.4081 32.6546L51.6687 27.8061C52.0149 28.8489 52.1949 29.9397 52.202 31.0384C52.2467 36.8936 47.5364 41.6764 41.6812 41.7211Z" fill="#CF1257"/>
</svg>
