<svg width="505" height="392" viewBox="0 0 505 392" fill="none" xmlns="http://www.w3.org/2000/svg">
<g clip-path="url(#clip0)">
<path d="M374.145 223.948L273.857 98.707C269.303 102.869 263.692 105.7 257.637 106.891C238.757 110.607 220.319 97.7225 216.454 78.1125C213.722 64.2505 219.011 50.7462 229.011 42.7035L194.815 0L0 166.391L179.33 390.338L374.145 223.948Z" fill="#CF1257"/>
<path d="M162.311 122.542L78.7515 139.606C76.3905 140.088 74.1672 141.092 72.2446 142.544C70.322 143.996 68.7488 145.86 67.64 147.998C66.5313 150.136 65.9152 152.495 65.8369 154.902C65.7586 157.309 66.22 159.703 67.1873 161.909L162.446 379.118C164.536 383.883 168.305 387.714 173.037 389.883C177.768 392.052 183.133 392.408 188.11 390.883L284.388 361.263C286.942 360.477 289.29 359.137 291.266 357.339C293.241 355.54 294.794 353.328 295.814 350.86C296.834 348.392 297.296 345.729 297.166 343.062C297.036 340.395 296.319 337.789 295.064 335.432L187.659 133.61C185.09 129.38 181.276 126.046 176.739 124.064C172.201 122.083 167.162 121.552 162.311 122.542Z" fill="#090F3F"/>
<path d="M78.6451 141.724L92.3841 139.016C93.3084 140.935 94.8362 142.498 96.7336 143.467C98.6311 144.435 100.794 144.756 102.891 144.38L152.54 135.474C153.031 135.386 153.498 135.193 153.909 134.909C154.32 134.624 154.664 134.255 154.919 133.825C155.174 133.396 155.334 132.917 155.387 132.42C155.44 131.924 155.386 131.422 155.228 130.948L153.878 126.899L167.552 124.204C170.384 123.646 173.321 124.007 175.934 125.233C178.546 126.46 180.699 128.489 182.077 131.023L293.306 335.588C294.263 337.347 294.816 339.297 294.925 341.296C295.034 343.295 294.696 345.293 293.937 347.146C293.177 348.998 292.014 350.659 290.533 352.006C289.052 353.354 287.289 354.356 285.372 354.938L190.576 383.753C186.626 384.954 182.373 384.675 178.613 382.968C174.854 381.262 171.845 378.244 170.151 374.481L71.5488 155.457C70.9388 154.102 70.6428 152.627 70.6828 151.141C70.7229 149.656 71.098 148.199 71.7802 146.879C72.4624 145.558 73.4341 144.409 74.6227 143.517C75.8114 142.624 77.1863 142.011 78.6451 141.724Z" fill="#F8BA1A"/>
<path d="M137.762 132.683L117.461 136.844" stroke="#489DD7" stroke-width="2" stroke-miterlimit="10"/>
<path d="M112.256 139.445C113.405 139.445 114.338 138.63 114.338 137.625C114.338 136.619 113.405 135.804 112.256 135.804C111.106 135.804 110.173 136.619 110.173 137.625C110.173 138.63 111.106 139.445 112.256 139.445Z" fill="#489DD7"/>
<path d="M125.79 157.132L215.322 349.084L339.73 315.271V311.11L242.91 130.602L127.872 155.572L127.325 155.982L125.79 157.132Z" fill="white"/>
<path opacity="0.2" d="M125.79 157.132L215.322 349.084L339.73 315.271V311.11L215.842 345.963L127.325 155.982L125.79 157.132Z" fill="black"/>
<path d="M285.594 238.282L193.98 261.691" stroke="#3F3D56" stroke-width="2" stroke-miterlimit="10"/>
<path d="M290.799 248.166L198.664 272.095" stroke="#3F3D56" stroke-width="2" stroke-miterlimit="10"/>
<path d="M278.827 261.691L221.048 277.297" stroke="#3F3D56" stroke-width="2" stroke-miterlimit="10"/>
<path d="M226.253 305.908L234.691 324.266L235.102 325.155L236.539 324.791L306.416 306.948V304.347L297.046 286.661L227.815 305.388L227.195 305.596L226.253 305.908Z" fill="#F8BA1A"/>
<path opacity="0.2" d="M226.253 305.908L234.691 324.266L235.102 325.155L236.539 324.791L306.416 306.948V304.347L236.143 323.074L227.195 305.596L226.253 305.908Z" fill="black"/>
<path d="M42.7639 391.48H505" stroke="#3F3D56" stroke-width="2" stroke-miterlimit="10"/>
<path d="M232.447 197.144C226.486 181.576 210.026 172.654 196.812 176.858C184.7 180.711 179.724 194.384 184.815 207.679C189.905 220.975 203.757 230.483 216.699 228.795C230.817 226.953 238.408 212.712 232.447 197.144Z" fill="#489DD7" stroke="#3F3D56" stroke-width="2" stroke-miterlimit="10"/>
<path opacity="0.2" d="M232.447 197.144C226.486 181.576 210.026 172.654 196.812 176.858C184.7 180.711 179.724 194.384 184.815 207.679C189.905 220.975 203.757 230.483 216.699 228.795C230.817 226.953 238.408 212.712 232.447 197.144Z" fill="#489DD7"/>
<path d="M235.049 194.543C229.089 178.975 212.629 170.054 199.415 174.257C187.302 178.11 182.327 191.783 187.417 205.078C192.508 218.374 206.36 227.882 219.301 226.194C233.419 224.352 241.01 210.111 235.049 194.543Z" fill="#489DD7" stroke="#489DD7" stroke-width="2" stroke-miterlimit="10"/>
<path d="M322.435 37.2831C326.677 37.2831 330.116 33.8465 330.116 29.6073C330.116 25.3681 326.677 21.9316 322.435 21.9316C318.193 21.9316 314.754 25.3681 314.754 29.6073C314.754 33.8465 318.193 37.2831 322.435 37.2831Z" stroke="#3F3D56" stroke-width="2" stroke-miterlimit="10"/>
<path d="M423.94 260.447C428.182 260.447 431.621 257.01 431.621 252.771C431.621 248.532 428.182 245.095 423.94 245.095C419.698 245.095 416.259 248.532 416.259 252.771C416.259 257.01 419.698 260.447 423.94 260.447Z" stroke="#3F3D56" stroke-width="2" stroke-miterlimit="10"/>
<path d="M88.8533 56.5303C93.0953 56.5303 96.5341 53.0937 96.5341 48.8545C96.5341 44.6153 93.0953 41.1788 88.8533 41.1788C84.6113 41.1788 81.1725 44.6153 81.1725 48.8545C81.1725 53.0937 84.6113 56.5303 88.8533 56.5303Z" stroke="#3F3D56" stroke-width="2" stroke-miterlimit="10"/>
<path d="M249.533 100.941C265.148 100.941 277.806 88.291 277.806 72.6865C277.806 57.082 265.148 44.432 249.533 44.432C233.918 44.432 221.26 57.082 221.26 72.6865C221.26 88.291 233.918 100.941 249.533 100.941Z" fill="#CF1257"/>
<path d="M360.707 141.346C371.287 141.346 379.863 132.775 379.863 122.202C379.863 111.63 371.287 103.059 360.707 103.059C350.128 103.059 341.552 111.63 341.552 122.202C341.552 132.775 350.128 141.346 360.707 141.346Z" fill="#090F3F"/>
<path d="M381.373 362.089L385.017 377.695H376.167L372.524 360.008L381.373 362.089Z" fill="#9F616A"/>
<path d="M338.689 362.089V376.654L329.84 377.695V362.089H338.689Z" fill="#9F616A"/>
<path d="M383.975 196.667C383.975 196.667 382.934 219.035 381.893 220.596C380.852 222.156 371.483 244.525 371.483 244.525L366.798 229.959C366.798 229.959 374.085 217.995 373.044 211.232C372.003 204.47 372.659 196.148 372.659 196.148L383.975 196.667Z" fill="#9F616A"/>
<path d="M354.305 142.567C362.354 142.567 368.88 136.045 368.88 128.001C368.88 119.957 362.354 113.436 354.305 113.436C346.255 113.436 339.73 119.957 339.73 128.001C339.73 136.045 346.255 142.567 354.305 142.567Z" fill="#9F616A"/>
<path d="M366.277 129.562C366.277 129.562 365.757 150.37 369.4 153.491C373.044 156.612 348.579 154.011 348.579 154.011C348.579 154.011 353.784 139.445 349.62 136.324C345.456 133.203 366.277 129.562 366.277 129.562Z" fill="#9F616A"/>
<path d="M347.017 152.97C347.017 152.97 350.141 147.248 354.305 147.769C358.469 148.289 372.003 149.329 372.524 150.37C373.044 151.41 374.606 155.051 375.647 156.092C376.688 157.132 384.496 158.693 385.016 164.935C385.537 171.177 366.277 209.152 366.277 209.152C366.277 209.152 368.88 217.995 368.359 220.076C367.839 222.156 370.962 228.399 370.441 231C369.921 233.601 378.249 249.207 374.085 269.494V302.266C374.085 302.266 388.14 358.968 383.975 363.129C379.811 367.291 365.757 364.69 363.154 363.129C360.551 361.569 349.62 283.019 349.62 283.019L344.415 256.489L343.894 314.751C343.894 314.751 344.935 363.649 341.291 365.21C337.648 366.771 323.593 367.291 322.552 364.17C321.74 361.735 317.762 296.966 316.05 268.575C315.457 258.775 316.229 248.941 318.342 239.353C320.509 229.533 323.654 217.996 327.237 213.313C334.004 204.47 338.168 176.379 338.168 176.379L329.319 160.253C329.319 160.253 334.524 155.051 337.648 155.051C340.771 155.051 347.017 152.97 347.017 152.97Z" fill="#0B060C"/>
<path d="M381.893 161.294L384.638 163.161C384.638 163.161 386.578 196.667 385.016 198.748C383.455 200.828 372.598 199.813 371.78 197.98C370.962 196.147 381.893 161.294 381.893 161.294Z" fill="#0B060C"/>
<path d="M335.474 191.758C336.997 202.321 338.333 211.725 330.542 220.232C322.712 228.842 313.881 236.486 304.237 243.002C303.282 245.532 289.253 264.107 288.54 256.698C287.826 249.288 292.673 243.479 299.56 237.213C306.448 230.947 316.083 217.352 321.52 209.892C326.957 202.432 324.719 197.781 324.53 191.55C324.341 185.319 333.336 191.833 335.474 191.758Z" fill="#9F616A"/>
<path d="M329.84 368.227C329.84 368.227 329.319 374.053 327.757 375.614C326.196 377.174 322.032 379.255 322.552 384.977C323.073 390.699 326.456 390.96 326.456 390.96L326.196 389.659L327.757 390.179L328.018 390.96H342.593C342.593 390.96 342.853 385.498 342.332 382.897C341.812 380.296 341.812 367.811 340.25 368.331C338.689 368.851 334.524 369.372 333.483 371.452C332.442 373.533 329.319 372.804 329.84 368.227Z" fill="#2F2E41"/>
<path d="M382.934 368.227C382.934 368.227 383.455 374.053 385.016 375.614C386.578 377.174 390.742 379.255 390.222 384.977C389.701 390.699 386.318 390.96 386.318 390.96L386.578 389.659L385.016 390.179L384.756 390.96H370.181C370.181 390.96 369.921 385.498 370.441 382.897C370.962 380.296 370.962 367.811 372.524 368.331C374.085 368.851 378.249 369.372 379.291 371.452C380.332 373.533 383.455 372.804 382.934 368.227Z" fill="#2F2E41"/>
<path d="M336.607 158.693L329.319 160.253C329.319 160.253 329.319 171.697 327.237 176.379C325.155 181.061 321.511 191.985 323.073 192.505C324.634 193.025 339.209 200.308 340.25 196.147C341.291 191.985 343.894 158.693 336.607 158.693Z" fill="#0B060C"/>
<path d="M381.459 116.14C392.039 116.14 400.615 107.57 400.615 96.9973C400.615 86.4249 392.039 77.8542 381.459 77.8542C370.88 77.8542 362.304 86.4249 362.304 96.9973C362.304 107.57 370.88 116.14 381.459 116.14Z" fill="#090F3F"/>
<path d="M397.982 112.849C395.503 114.64 392.63 115.811 389.605 116.265C386.58 116.719 383.49 116.442 380.594 115.458C377.697 114.474 375.079 112.811 372.958 110.608C370.836 108.406 369.274 105.727 368.401 102.797C368.731 105.423 369.603 107.952 370.96 110.224C372.318 112.496 374.132 114.462 376.289 115.998C378.445 117.534 380.897 118.607 383.489 119.148C386.081 119.689 388.757 119.688 391.349 119.143C393.94 118.599 396.391 117.524 398.545 115.985C400.7 114.446 402.512 112.478 403.867 110.204C405.222 107.931 406.09 105.401 406.418 102.775C406.745 100.149 406.524 97.4833 405.768 94.9469C406.197 98.3545 405.701 101.815 404.331 104.965C402.961 108.114 400.768 110.838 397.982 112.849Z" fill="#090F3F"/>
<path d="M365.815 139.431C373.574 139.431 379.863 133.146 379.863 125.393C379.863 117.64 373.574 111.355 365.815 111.355C358.057 111.355 351.768 117.64 351.768 125.393C351.768 133.146 358.057 139.431 365.815 139.431Z" fill="#090F3F"/>
<path d="M354.003 129.86C360.879 129.86 366.454 125.503 366.454 120.129C366.454 114.754 360.879 110.398 354.003 110.398C347.126 110.398 341.552 114.754 341.552 120.129C341.552 125.503 347.126 129.86 354.003 129.86Z" fill="#090F3F"/>
<path d="M350.682 134.278C351.987 134.278 353.045 132.408 353.045 130.1C353.045 127.792 351.987 125.922 350.682 125.922C349.377 125.922 348.319 127.792 348.319 130.1C348.319 132.408 349.377 134.278 350.682 134.278Z" fill="#A0616A"/>
</g>
<defs>
<clipPath id="clip0">
<rect width="505" height="392" fill="white"/>
</clipPath>
</defs>
</svg>
