<svg width="375" height="839" viewBox="0 0 375 839" fill="none" xmlns="http://www.w3.org/2000/svg">
<path d="M1102.47 855.08L-703.909 855.079C-703.909 478.848 -703.909 267.91 -703.908 -108.322C-216.563 348.953 378.102 -235.209 1102.47 72.8842L1102.47 855.08Z" fill="#090F3F"/>
<mask id="mask0" mask-type="alpha" maskUnits="userSpaceOnUse" x="42" y="308" width="1137" height="894">
<path opacity="0.5" d="M1115.2 570.763C1160.68 586.995 1186.79 634.702 1175.96 681.756L1073.28 1127.78C1061.49 1179.01 1010.39 1210.99 959.155 1199.2L116.806 1005.38C58.5135 991.964 26.8902 928.747 51.1289 874.059L276.692 365.06C296.886 319.505 348.8 297.217 395.737 313.974L1115.2 570.763Z" fill="url(#paint0_linear)"/>
</mask>
<g mask="url(#mask0)">
<path opacity="0.7" d="M1116.33 571.587C1161.81 587.819 1187.93 635.526 1177.1 682.58L1074.42 1128.6C1062.62 1179.84 1011.53 1211.81 960.291 1200.02L117.942 1006.2C59.6496 992.788 28.0264 929.571 52.2651 874.883L277.829 365.884C298.022 320.329 349.936 298.041 396.873 314.798L1116.33 571.587Z" fill="#FCC22C"/>
</g>
<mask id="mask1" mask-type="alpha" maskUnits="userSpaceOnUse" x="249" y="-929" width="1027" height="1123">
<path d="M257.453 -560.121C237.739 -604.2 254.152 -656.053 295.637 -680.758L688.881 -914.937C734.05 -941.835 792.477 -927.025 819.382 -881.856L1261.72 -139.256C1292.33 -87.8649 1268.52 -21.311 1212.25 -1.01403L688.546 187.92C641.671 204.825 589.677 182.726 569.333 137.229L257.453 -560.121Z" fill="#CF1257"/>
</mask>
<g mask="url(#mask1)">
<path d="M257.263 -561.512C237.549 -605.591 253.962 -657.443 295.447 -682.148L688.692 -916.328C733.86 -943.226 792.287 -928.415 819.192 -883.246L1261.53 -140.647C1292.14 -89.2555 1268.33 -22.7016 1212.06 -2.40466L688.356 186.53C641.481 203.434 589.487 181.336 569.143 135.838L257.263 -561.512Z" fill="url(#paint1_linear)"/>
</g>
<mask id="mask2" mask-type="alpha" maskUnits="userSpaceOnUse" x="-731" y="-491" width="1049" height="753">
<path d="M-578.023 261.125C-626.308 261.489 -667.214 225.644 -673.191 177.732L-729.846 -276.44C-736.354 -328.606 -699.338 -376.176 -647.169 -382.689L210.531 -489.782C269.886 -497.191 321.287 -448.67 317.293 -388.985L280.147 166.515C276.817 216.233 235.708 254.986 185.87 255.358L-578.023 261.125Z" fill="#CF1257"/>
</mask>
<g mask="url(#mask2)">
<path d="M-579.373 260.74C-627.659 261.104 -668.564 225.26 -674.541 177.347L-731.197 -276.824C-737.704 -328.991 -700.688 -376.561 -648.519 -383.074L209.18 -490.167C268.536 -497.576 319.937 -449.055 315.943 -389.37L278.797 166.13C275.467 215.848 234.357 254.601 184.52 254.974L-579.373 260.74Z" fill="url(#paint2_linear)"/>
</g>
<mask id="mask3" mask-type="alpha" maskUnits="userSpaceOnUse" x="-1178" y="-453" width="1141" height="907">
<path d="M-1116.64 175.096C-1161.74 157.867 -1186.8 109.596 -1174.94 62.7929L-1062.46 -380.863C-1049.54 -431.822 -997.756 -462.663 -946.793 -449.748L-108.916 -237.431C-50.9324 -222.736 -20.7086 -158.838 -46.1455 -104.697L-282.862 399.212C-304.053 444.311 -356.445 465.451 -403.002 447.664L-1116.64 175.096Z" fill="#CF1257"/>
</mask>
<g mask="url(#mask3)">
</g>
<mask id="mask4" mask-type="alpha" maskUnits="userSpaceOnUse" x="-826" y="269" width="883" height="1077">
<path opacity="0.5" d="M54.6275 1098.87C63.3087 1146.37 35.0514 1192.84 -11.1143 1206.98L-448.723 1341.07C-498.988 1356.47 -552.225 1328.21 -567.633 1277.94L-820.957 451.54C-838.486 394.35 -799.55 335.355 -740.069 329.002L-186.481 269.846C-136.933 264.557 -91.6743 298.371 -82.7173 347.399L54.6275 1098.87Z" fill="url(#paint3_linear)"/>
</mask>
<g mask="url(#mask4)">
<path opacity="0.7" d="M54.4816 1100.26C63.1628 1147.76 34.9055 1194.23 -11.2602 1208.38L-448.869 1342.47C-499.133 1357.87 -552.371 1329.6 -567.779 1279.34L-821.102 452.935C-838.631 395.744 -799.696 336.749 -740.215 330.397L-186.627 271.241C-137.079 265.952 -91.8201 299.766 -82.8632 348.793L54.4816 1100.26Z" fill="#FCC22C"/>
</g>
<defs>
<linearGradient id="paint0_linear" x1="357.693" y1="390.106" x2="930.28" y2="1277.96" gradientUnits="userSpaceOnUse">
<stop stop-color="#FCC22C"/>
<stop offset="1" stop-color="#FCC22C" stop-opacity="0"/>
</linearGradient>
<linearGradient id="paint1_linear" x1="502.503" y1="262.596" x2="907.092" y2="-225.42" gradientUnits="userSpaceOnUse">
<stop stop-color="#CF1257"/>
<stop offset="1" stop-color="#CF1257" stop-opacity="0"/>
</linearGradient>
<linearGradient id="paint2_linear" x1="-486.959" y1="-521.334" x2="142.44" y2="310.461" gradientUnits="userSpaceOnUse">
<stop stop-color="#489DD7"/>
<stop offset="1" stop-color="#489DD7" stop-opacity="0"/>
</linearGradient>
<linearGradient id="paint3_linear" x1="-167.672" y1="352.518" x2="-650.28" y2="1292.32" gradientUnits="userSpaceOnUse">
<stop stop-color="#FCC22C"/>
<stop offset="1" stop-color="#FCC22C" stop-opacity="0"/>
</linearGradient>
</defs>
</svg>
