<svg width="492" height="384" viewBox="0 0 492 384" fill="none" xmlns="http://www.w3.org/2000/svg">
<g clip-path="url(#clip0)">
<path d="M492 161C492 182.164 474.881 215.942 453.764 215.942C432.647 215.942 415.528 182.164 415.528 161C415.528 150.837 419.556 141.09 426.727 133.903C433.898 126.717 443.623 122.679 453.764 122.679C463.905 122.679 473.63 126.717 480.801 133.903C487.972 141.09 492 150.837 492 161Z" fill="#CF1257"/>
<path d="M455.18 217.305C450.375 218.963 449.225 225.53 450.878 230.347C452.53 235.163 456.031 239.158 457.792 243.935C458.596 246.345 459.173 248.824 459.515 251.342C460.521 257.335 461.53 263.434 460.755 269.461C460.02 275.179 457.708 280.57 455.129 285.723C450.135 295.701 444.06 305.098 437.014 313.744" stroke="#2F2E41" stroke-width="2"/>
<path d="M457.449 219.636C454.993 218.056 452.536 218.056 450.079 219.636V212.249H457.449V219.636Z" fill="#FF6584"/>
<path d="M450.098 215.786C451.243 216.367 452.51 216.667 453.794 216.662C455.077 216.657 456.341 216.346 457.482 215.755" stroke="#2F2E41" stroke-width="2"/>
<path opacity="0.4" d="M469.657 154.536C474.11 154.536 477.719 150.195 477.719 144.841C477.719 139.486 474.11 135.145 469.657 135.145C465.205 135.145 461.595 139.486 461.595 144.841C461.595 150.195 465.205 154.536 469.657 154.536Z" fill="white"/>
<path d="M0 154.998C0 176.162 17.1188 209.94 38.236 209.94C59.3531 209.94 76.4719 176.162 76.4719 154.998C76.4719 144.835 72.4435 135.088 65.2729 127.901C58.1022 120.715 48.3768 116.677 38.236 116.677C28.0952 116.677 18.3697 120.715 11.1991 127.901C4.02842 135.088 0 144.835 0 154.998Z" fill="#CF1257"/>
<path d="M36.8198 211.303C41.6249 212.961 42.7752 219.528 41.1224 224.345C39.4697 229.161 35.9692 233.156 34.2079 237.933C33.4043 240.343 32.8274 242.822 32.4848 245.34C31.4786 251.333 30.4696 257.432 31.2449 263.459C31.9804 269.177 34.2918 274.568 36.8706 279.721C41.8649 289.7 47.9398 299.096 54.9856 307.742" stroke="#2F2E41" stroke-width="2"/>
<path d="M34.5506 213.634C37.0075 212.054 39.4644 212.054 41.9214 213.634V206.247H34.5506V213.634Z" fill="#FF6584"/>
<path d="M41.902 209.784C40.7567 210.365 39.4901 210.665 38.2064 210.66C36.9227 210.655 35.6586 210.344 34.5181 209.753" stroke="#2F2E41" stroke-width="2"/>
<path opacity="0.4" d="M22.3427 148.534C26.7951 148.534 30.4045 144.193 30.4045 138.839C30.4045 133.484 26.7951 129.143 22.3427 129.143C17.8903 129.143 14.2809 133.484 14.2809 138.839C14.2809 144.193 17.8903 148.534 22.3427 148.534Z" fill="white"/>
<path d="M464.36 323.518C464.36 345.319 362.059 384 235.865 384C109.671 384 19.3483 305.614 19.3483 283.812C19.3483 262.011 109.671 305.05 235.865 305.05C362.059 305.05 464.36 301.716 464.36 323.518Z" fill="#3F3D56"/>
<path opacity="0.1" d="M464.36 323.518C464.36 345.319 362.059 384 235.865 384C109.671 384 19.3483 305.614 19.3483 283.812C19.3483 262.011 109.671 305.05 235.865 305.05C362.059 305.05 464.36 301.716 464.36 323.518Z" fill="#090F3F"/>
<path d="M464.36 323.287C464.36 345.088 362.059 362.762 235.865 362.762C109.671 362.762 19.3483 305.613 19.3483 283.812C19.3483 262.01 109.671 283.812 235.865 283.812C362.059 283.812 464.36 301.485 464.36 323.287Z" fill="#489DD7"/>
<path d="M200.942 261.849L196.314 291.458C196.314 291.458 173.534 303.587 189.551 303.944C205.569 304.301 281.03 303.944 281.03 303.944C281.03 303.944 295.624 303.944 272.487 291.102L267.86 260.065L200.942 261.849Z" fill="#2F2E41"/>
<path opacity="0.1" d="M186.329 303.623C189.967 300.379 196.314 296.999 196.314 296.999L200.942 267.389L267.86 267.453L272.487 296.642C277.882 299.637 281.225 301.933 283.18 303.694C286.151 303.014 289.399 300.489 272.487 291.102L267.86 260.065L200.942 261.849L196.314 291.458C196.314 291.458 177.172 301.652 186.329 303.623Z" fill="black"/>
<path d="M374.188 55.4766H93.9009C88.0466 55.4766 83.3008 60.2329 83.3008 66.1002V255.328C83.3008 261.196 88.0466 265.952 93.9009 265.952H374.188C380.043 265.952 384.789 261.196 384.789 255.328V66.1002C384.789 60.2329 380.043 55.4766 374.188 55.4766Z" fill="#2F2E41"/>
<path d="M374.644 66.7139H93.4453V224.392H374.644V66.7139Z" fill="#3F3D56"/>
<path d="M234.045 63.5029C235.028 63.5029 235.824 62.7043 235.824 61.7192C235.824 60.7341 235.028 59.9355 234.045 59.9355C233.062 59.9355 232.265 60.7341 232.265 61.7192C232.265 62.7043 233.062 63.5029 234.045 63.5029Z" fill="#F2F2F2"/>
<path d="M384.789 236.878V255.328C384.789 256.724 384.515 258.105 383.982 259.394C383.449 260.683 382.669 261.854 381.684 262.841C380.7 263.827 379.531 264.61 378.245 265.144C376.959 265.678 375.581 265.952 374.188 265.952H93.901C92.5089 265.952 91.1304 265.678 89.8443 265.144C88.5582 264.61 87.3895 263.827 86.4052 262.841C85.4208 261.854 84.64 260.683 84.1074 259.394C83.5748 258.105 83.3007 256.724 83.3009 255.328V236.878H384.789Z" fill="#2F2E41"/>
<path d="M312.709 323.208V326.776H121.209V323.922L121.473 323.208L126.192 310.366H308.794L312.709 323.208Z" fill="#2F2E41"/>
<path d="M386.404 319.716C386.056 321.21 384.739 322.787 381.763 324.278C371.085 329.629 349.372 322.851 349.372 322.851C349.372 322.851 332.642 319.997 332.642 312.506C333.112 312.184 333.602 311.892 334.109 311.632C338.598 309.251 353.484 303.377 379.878 311.881C381.822 312.492 383.559 313.633 384.895 315.176C385.965 316.431 386.803 318.022 386.404 319.716Z" fill="#2F2E41"/>
<path opacity="0.1" d="M386.405 319.716C373.334 324.735 361.684 325.11 349.728 316.787C343.698 312.592 338.22 311.554 334.109 311.632C338.598 309.252 353.484 303.378 379.878 311.881C381.822 312.493 383.559 313.634 384.895 315.176C385.965 316.431 386.803 318.023 386.405 319.716Z" fill="black"/>
<path d="M370.017 316.787C372.572 316.787 374.644 316.148 374.644 315.36C374.644 314.572 372.572 313.933 370.017 313.933C367.461 313.933 365.389 314.572 365.389 315.36C365.389 316.148 367.461 316.787 370.017 316.787Z" fill="#F2F2F2"/>
<path d="M234.045 258.282C237.78 258.282 240.808 255.247 240.808 251.504C240.808 247.76 237.78 244.726 234.045 244.726C230.31 244.726 227.282 247.76 227.282 251.504C227.282 255.247 230.31 258.282 234.045 258.282Z" fill="#F2F2F2"/>
<path opacity="0.1" d="M312.709 323.208V326.776H121.209V323.922L121.473 323.208H312.709Z" fill="black"/>
<path d="M401.281 140.663C396.476 142.321 395.326 148.888 396.979 153.704C398.631 158.521 402.132 162.516 403.893 167.293C404.697 169.703 405.274 172.182 405.616 174.699C406.623 180.693 407.632 186.791 406.856 192.819C406.121 198.537 403.809 203.928 401.231 209.081C396.236 219.059 390.161 228.456 383.116 237.102" stroke="#2F2E41" stroke-width="2"/>
<path d="M438.101 84.3584C438.101 105.522 420.982 139.3 399.865 139.3C378.748 139.3 361.629 105.522 361.629 84.3584C361.629 74.1951 365.658 64.4481 372.828 57.2615C379.999 50.075 389.724 46.0376 399.865 46.0376C410.006 46.0376 419.731 50.075 426.902 57.2615C434.073 64.4481 438.101 74.1951 438.101 84.3584Z" fill="#F8BA1A"/>
<path d="M403.551 142.994C401.094 141.414 398.637 141.414 396.18 142.994V135.607H403.551V142.994Z" fill="#6C63FF"/>
<path d="M396.199 139.144C397.344 139.725 398.611 140.026 399.895 140.02C401.178 140.015 402.442 139.704 403.583 139.114" stroke="#2F2E41" stroke-width="2"/>
<path opacity="0.4" d="M415.758 77.8947C420.211 77.8947 423.82 73.5538 423.82 68.1991C423.82 62.8443 420.211 58.5034 415.758 58.5034C411.306 58.5034 407.697 62.8443 407.697 68.1991C407.697 73.5538 411.306 77.8947 415.758 77.8947Z" fill="white"/>
<path d="M278.066 133.224V173.182L267.526 194.493V194.495L267.192 195.168L239.289 193.321L228.563 192.61L203.668 190.962V143.165L228.563 143.869L239.696 144.184L267.86 144.982L278.066 133.224Z" fill="#F8BA1A"/>
<path opacity="0.1" d="M278.066 135.581V173.182L275.491 178.388V178.39L272.85 183.726V183.728L267.526 194.493L268.122 154.535L268.242 146.475L273.305 140.861V140.86L275.512 138.413L278.066 135.581Z" fill="black"/>
<path d="M279.497 122.613V136.57L278.066 138.854L275.51 142.936L273.246 146.552L268.242 154.541L268.122 154.535L201.475 151.1V137.334L201.643 137.153L209.599 128.521L212.48 125.397L217.689 119.745L279.497 122.613Z" fill="#F8BA1A"/>
<path opacity="0.1" d="M268.242 140.776V154.541L201.475 151.1V137.334L201.643 137.153L268.242 140.776Z" fill="black"/>
<path opacity="0.15" d="M279.497 122.613V136.57L268.242 154.541V140.776L279.497 122.613Z" fill="black"/>
<path d="M275.518 129.035L275.512 138.413L275.51 142.936L275.491 178.388V178.39L272.85 183.726L273.246 146.551L273.305 140.861V140.86L273.394 132.461L209.599 128.52L212.479 125.396L275.518 129.035Z" fill="#2F2E41"/>
<path d="M244.206 129.496L239.736 139.225L239.696 144.184L239.289 193.322L228.563 192.611V138.577L234.286 129.496H244.206Z" fill="#2F2E41"/>
<path d="M229.485 130.15C226.902 131.011 224.127 131.109 221.49 130.431C220.977 130.332 220.495 130.108 220.088 129.78C219.649 129.294 219.35 128.699 219.22 128.057C218.754 126.731 218.496 125.34 218.455 123.935C218.487 122.531 219.022 121.066 220.165 120.254C220.397 120.113 220.615 119.95 220.815 119.765C221.053 119.464 221.224 119.115 221.317 118.742C222.099 116.405 223.614 113.938 226.044 113.564C228.286 113.219 230.327 114.788 232.055 116.262L235.847 119.496C236.267 118.362 237.02 117.383 238.006 116.686C238.992 115.989 240.166 115.607 241.372 115.591C242.579 115.575 243.762 115.924 244.767 116.594C245.771 117.263 246.551 118.222 247.002 119.343C249.3 116.749 252.196 114.758 255.437 113.543C256.156 113.274 256.999 113.056 257.654 113.456C258.059 113.755 258.366 114.167 258.536 114.641C259.568 116.906 260.128 119.358 260.18 121.846C260.445 121.756 260.733 121.756 260.998 121.847C261.263 121.939 261.489 122.117 261.642 122.352C261.936 122.832 262.103 123.378 262.129 123.94C262.23 124.809 262.28 125.682 262.28 126.557C262.279 127.479 262.194 128.475 261.595 129.175C260.82 130.078 259.482 130.174 258.293 130.202C258.866 130.711 258.586 131.737 257.953 132.167C257.32 132.598 256.501 132.606 255.736 132.599C252.786 132.57 249.648 132.486 247.194 130.845C246.225 130.197 245.413 129.334 244.442 128.689C242.061 127.11 239.071 127.035 236.315 127.165C233.828 127.283 231.853 129.355 229.485 130.15Z" fill="#2F2E41"/>
<path d="M228.944 129.496C228.944 129.496 204.336 132.937 200.902 147.85L206.053 147.085L209.677 153.585C209.677 153.585 213.493 139.055 224.748 135.614C236.003 132.172 240.009 131.599 240.009 131.599C240.009 131.599 247.83 133.511 254.888 156.262L258.894 150.717L265.953 152.247C265.953 152.247 260.802 134.466 246.876 129.496L228.944 129.496Z" fill="#2F2E41"/>
</g>
<defs>
<clipPath id="clip0">
<rect width="492" height="384" fill="white"/>
</clipPath>
</defs>
</svg>
