<svg width="94" height="94" viewBox="0 0 94 94" fill="none" xmlns="http://www.w3.org/2000/svg">
<path d="M47 0C21.0426 0 0 21.0426 0 47C0 72.9574 21.0426 94 47 94C72.9574 94 94 72.9574 94 47C93.9667 21.0565 72.9435 0.033269 47 0ZM49.0163 89.8666V81.5997C49.0163 80.4862 48.1135 79.5835 47 79.5835C45.8865 79.5835 44.9837 80.4862 44.9837 81.5997V89.8666C22.8747 88.8111 5.18895 71.1253 4.13342 49.0163H12.4003C13.5138 49.0163 14.4166 48.1135 14.4166 47C14.4166 45.8865 13.5138 44.9837 12.4003 44.9837H4.13342C5.18895 22.8747 22.8747 5.18895 44.9837 4.13342V12.4003C44.9837 13.5138 45.8865 14.4166 47 14.4166C48.1135 14.4166 49.0163 13.5138 49.0163 12.4003V4.13342C71.1253 5.18895 88.8111 22.8747 89.8666 44.9837H81.5997C80.4862 44.9837 79.5835 45.8865 79.5835 47C79.5835 48.1135 80.4862 49.0163 81.5997 49.0163H81.6199H89.8867C88.8305 71.1326 71.1331 88.8211 49.0163 89.8666Z" fill="#F8BA1A"/>
<path d="M68.2712 65.7514L49.0155 46.1731V25.8286C49.0155 24.7151 48.1127 23.8123 46.9992 23.8123C45.8857 23.8123 44.9829 24.7151 44.9829 25.8286V46.9997C44.9852 47.5288 45.1951 48.0356 45.5676 48.4111L65.3879 68.5742C66.1674 69.3704 67.4448 69.384 68.241 68.6044C69.0372 67.8249 69.0508 66.5475 68.2712 65.7514Z" fill="#F8BA1A"/>
</svg>
