<svg width="94" height="94" viewBox="0 0 94 94" fill="none" xmlns="http://www.w3.org/2000/svg">
<g clip-path="url(#clip0)">
<path d="M74.3821 23.7262H3.76905V9.3096C3.76905 9.19511 3.86186 9.1023 3.97634 9.1023H25.4222V16.8477C25.4222 17.8884 26.266 18.7322 27.3067 18.7322C28.3475 18.7322 29.1913 17.8884 29.1913 16.8477V9.1023H52.6536C53.6943 9.1023 54.5381 8.2585 54.5381 7.21778C54.5381 6.17705 53.6943 5.33325 52.6536 5.33325H3.9575C1.76886 5.34362 0 7.12096 0 9.3096V84.6905C0 86.8867 1.78017 88.6669 3.97634 88.6669H20.0136C21.0544 88.6669 21.8982 87.8231 21.8982 86.7823C21.8982 85.7416 21.0544 84.8978 20.0136 84.8978H3.9575C3.85031 84.8879 3.76857 84.7979 3.76905 84.6905V53.577H52.0882C53.1289 53.577 53.9727 52.7332 53.9727 51.6925C53.9727 50.6518 53.1289 49.808 52.0882 49.808H30.7554V36.4467C30.7554 35.406 29.9116 34.5622 28.8709 34.5622H15.6792C14.6385 34.5622 13.7947 35.406 13.7947 36.4467C13.7947 37.4875 14.6385 38.3313 15.6792 38.3313H26.9864V49.8268H3.76905V27.4952H47.5842V39.6881C47.5842 40.7288 48.428 41.5726 49.4687 41.5726C50.5094 41.5726 51.3532 40.7288 51.3532 39.6881V27.4952H72.4976V64.4696C72.4976 65.5103 73.3414 66.3541 74.3821 66.3541C75.4228 66.3541 76.2666 65.5103 76.2666 64.4696V25.6107C76.2666 24.57 75.4228 23.7262 74.3821 23.7262Z" fill="#F8BA1A"/>
<path d="M90.0433 5.33325H68.9178C67.877 5.33325 67.0332 6.17705 67.0332 7.21778C67.0332 8.2585 67.877 9.1023 68.9178 9.1023H90.0433C90.1577 9.1023 90.2506 9.19511 90.2506 9.3096V84.6905C90.2506 84.805 90.1577 84.8978 90.0433 84.8978H37.4085V66.3541H42.3083C43.349 66.3541 44.1928 65.5103 44.1928 64.4696C44.1928 63.4289 43.349 62.5851 42.3083 62.5851H19.2229C18.1822 62.5851 17.3384 63.4289 17.3384 64.4696C17.3384 65.5103 18.1822 66.3541 19.2229 66.3541H33.6395V86.7823C33.6395 87.8231 34.4833 88.6669 35.524 88.6669H90.0433C92.2319 88.6565 94.0008 86.8792 94.0008 84.6905V9.3096C94.0008 7.12096 92.2319 5.34362 90.0433 5.33325Z" fill="#F8BA1A"/>
<path d="M63.2456 39.4622C62.2049 39.4622 61.3611 40.306 61.3611 41.3467H61.2857V71.8571H45.1165C44.0757 71.8571 43.2319 72.7009 43.2319 73.7416C43.2319 74.7823 44.0757 75.6261 45.1165 75.6261H63.2456C64.2863 75.6261 65.1301 74.7823 65.1301 73.7416V41.3467C65.1301 40.306 64.2863 39.4622 63.2456 39.4622Z" fill="#F8BA1A"/>
</g>
<defs>
<clipPath id="clip0">
<rect width="94" height="94" fill="white"/>
</clipPath>
</defs>
</svg>
