<svg width="94" height="94" viewBox="0 0 94 94" fill="none" xmlns="http://www.w3.org/2000/svg">
<path d="M55.4509 47.0092C55.4414 42.3529 51.664 38.5833 47.0077 38.5833C42.3447 38.5833 38.5645 42.3635 38.5645 47.0265C38.5645 51.6895 42.3447 55.4697 47.0077 55.4697C51.6707 55.4697 55.4509 51.6895 55.4509 47.0265C55.4509 47.0206 55.4509 47.015 55.4509 47.0092ZM47.0077 51.9921C44.2556 51.9921 42.0248 49.7612 42.0248 47.0092C42.0248 44.2571 44.2556 42.0263 47.0077 42.0263C49.7597 42.0263 51.9906 44.2571 51.9906 47.0092C51.9906 49.7612 49.7597 51.9921 47.0077 51.9921Z" fill="#F8BA1A"/>
<path d="M92.2698 45.2785H83.8958C82.9819 26.2531 67.7642 11.0354 48.7388 10.1215V1.73017C48.7388 0.774682 47.9641 0 47.0086 0C46.0532 0 45.2785 0.774682 45.2785 1.73017V10.1042C26.2469 11.0188 11.0268 26.2464 10.1215 45.2785H1.73017C0.774682 45.2785 0 46.0532 0 47.0086C0 47.9641 0.774682 48.7388 1.73017 48.7388H10.1042C11.0188 67.7704 26.2464 82.9905 45.2785 83.8958V92.2698C45.2785 93.2253 46.0532 94 47.0086 94C47.9641 94 48.7388 93.2253 48.7388 92.2698V83.8958C67.7642 82.9819 82.9819 67.7642 83.8958 48.7388H92.2698C93.2253 48.7388 94 47.9641 94 47.0086C94 46.0532 93.2253 45.2785 92.2698 45.2785ZM72.2345 48.7388H80.4355C79.5302 65.8554 65.8554 79.5302 48.7388 80.4355V72.2345C48.7388 71.279 47.9641 70.5043 47.0086 70.5043C46.0532 70.5043 45.2785 71.279 45.2785 72.2345V80.4355C28.1619 79.5302 14.4871 65.8554 13.5818 48.7388H21.7828C22.7383 48.7388 23.513 47.9641 23.513 47.0086C23.513 46.0532 22.7383 45.2785 21.7828 45.2785H13.5818C14.4871 28.1619 28.1619 14.4871 45.2785 13.5818V21.7828C45.2785 22.7383 46.0532 23.513 47.0086 23.513C47.9641 23.513 48.7388 22.7383 48.7388 21.7828V13.5818C65.8554 14.4871 79.5302 28.1619 80.4355 45.2785H72.2345C71.279 45.2785 70.5043 46.0532 70.5043 47.0086C70.5043 47.9641 71.279 48.7388 72.2345 48.7388Z" fill="#F8BA1A"/>
</svg>
