<svg width="94" height="94" viewBox="0 0 94 94" fill="none" xmlns="http://www.w3.org/2000/svg">
<path d="M46.9999 28.0596C36.6067 28.0596 30.1509 33.3803 30.1509 41.9999C30.1509 42.9794 30.945 43.7735 31.9245 43.7735H62.0754C63.0549 43.7735 63.849 42.9794 63.849 41.9999C63.849 33.3981 57.3931 28.0596 46.9999 28.0596ZM33.8222 40.2264C34.9928 32.263 44.0913 31.6067 46.9999 31.6067C49.9086 31.6067 59.0071 32.263 60.1777 40.2264H33.8222Z" fill="#F8BA1A"/>
<path d="M46.9997 9.43652C42.347 9.43652 38.5752 13.2083 38.5752 17.8611C38.585 22.5098 42.3509 26.2758 46.9997 26.2856C51.6525 26.2856 55.4243 22.5138 55.4243 17.8611C55.4243 13.2083 51.6525 9.43652 46.9997 9.43652ZM46.9997 22.7384C44.3061 22.7384 42.1224 20.5547 42.1224 17.8611C42.1224 15.1674 44.3061 12.9837 46.9997 12.9837C49.6934 12.9837 51.8771 15.1674 51.8771 17.8611C51.8771 20.5547 49.6934 22.7384 46.9997 22.7384Z" fill="#F8BA1A"/>
<path d="M16.8491 68.8521C6.45585 68.8521 0 74.1728 0 82.7924C0 83.7719 0.794123 84.566 1.77358 84.566H31.9245C32.904 84.566 33.6981 83.7719 33.6981 82.7924C33.6981 74.1905 27.2423 68.8521 16.8491 68.8521ZM3.67132 81.0189C4.84189 73.0555 13.9226 72.3992 16.8491 72.3992C19.7755 72.3992 28.8562 73.0555 30.0268 81.0189H3.67132Z" fill="#F8BA1A"/>
<path d="M16.8493 50.229C12.1966 50.229 8.4248 54.0008 8.4248 58.6535C8.43456 63.3023 12.2005 67.0683 16.8493 67.0781C21.5021 67.0781 25.2739 63.3063 25.2739 58.6535C25.2739 54.0008 21.5021 50.229 16.8493 50.229ZM16.8493 63.5309C14.1557 63.5309 11.972 61.3472 11.972 58.6535C11.972 55.9599 14.1557 53.7762 16.8493 53.7762C19.543 53.7762 21.7267 55.9599 21.7267 58.6535C21.7267 61.3472 19.543 63.5309 16.8493 63.5309Z" fill="#F8BA1A"/>
<path d="M77.1508 68.8521C66.7576 68.8521 60.3018 74.1728 60.3018 82.7924C60.3018 83.7719 61.0959 84.566 62.0753 84.566H92.2263C93.2057 84.566 93.9999 83.7719 93.9999 82.7924C93.9999 74.1905 87.544 68.8521 77.1508 68.8521ZM63.9731 81.0189C65.1436 73.0555 74.2244 72.3992 77.1508 72.3992C80.0772 72.3992 89.158 73.0555 90.3286 81.0189H63.9731Z" fill="#F8BA1A"/>
<path d="M77.1506 50.229C72.4978 50.229 68.7261 54.0008 68.7261 58.6535C68.7358 63.3023 72.5018 67.0683 77.1506 67.0781C81.8034 67.0781 85.5751 63.3063 85.5751 58.6535C85.5751 54.0008 81.8034 50.229 77.1506 50.229ZM77.1506 63.5309C74.457 63.5309 72.2732 61.3472 72.2732 58.6535C72.2732 55.9599 74.457 53.7762 77.1506 53.7762C79.8442 53.7762 82.028 55.9599 82.028 58.6535C82.028 61.3472 79.8442 63.5309 77.1506 63.5309Z" fill="#F8BA1A"/>
<path d="M56.1692 65.7828L48.7733 58.3515V47.8874C48.7733 46.9079 47.9792 46.1138 46.9997 46.1138C46.0203 46.1138 45.2262 46.9079 45.2262 47.8874V58.3515L37.8303 65.7474C37.13 66.4379 37.122 67.5655 37.8126 68.2659C38.5032 68.9662 39.6307 68.9742 40.3311 68.2836L46.9997 61.5972L53.6684 68.2836C54.4124 68.9207 55.532 68.8341 56.1692 68.09C56.7378 67.4261 56.7378 66.4468 56.1692 65.7828Z" fill="#F8BA1A"/>
</svg>
