<svg width="94" height="94" viewBox="0 0 94 94" fill="none" xmlns="http://www.w3.org/2000/svg">
<g clip-path="url(#clip0)">
<path d="M93.7465 48.0275C93.6053 47.7897 93.4067 47.591 93.1688 47.4498H93.268L32.6172 10.6497C32.1062 10.3547 31.4765 10.3547 30.9655 10.6497L0.920902 26.6713C0.104132 27.0776 -0.228687 28.0691 0.177633 28.8859C0.311834 29.1559 0.517679 29.3838 0.772248 29.5453L61.5056 67.2373C61.7684 67.4002 62.0717 67.4861 62.381 67.4851C62.6647 67.4842 62.9434 67.4103 63.1903 67.2703L93.1688 50.2908C93.9534 49.8252 94.2119 48.8119 93.7465 48.0275ZM62.4801 63.9669L5.00062 28.2404L31.7088 13.9532L89.0891 48.8207L62.4801 63.9669Z" fill="#F8BA1A"/>
<path d="M93.779 56.0706C93.3229 55.2769 92.3098 55.0033 91.5161 55.4594H91.6152L62.4956 71.9765L2.555 34.7635C1.77952 34.2709 0.751741 34.5001 0.259118 35.2755C-0.233504 36.051 -0.00432934 37.0788 0.771149 37.5714L61.5045 75.2634C61.7674 75.4263 62.0707 75.5122 62.3799 75.5112C62.6636 75.5103 62.9424 75.4364 63.1893 75.2965L93.1678 58.3334C93.9615 57.8773 94.235 56.8642 93.779 56.0706Z" fill="#F8BA1A"/>
<path d="M93.4267 64.0395C92.9947 63.4992 92.2717 63.2851 91.6151 63.5035L62.4129 80.0206L2.55499 42.7911C1.77952 42.2985 0.75174 42.5277 0.259118 43.3031C-0.233504 44.0786 -0.00432934 45.1064 0.771148 45.599L61.5045 83.324C61.7673 83.4869 62.0706 83.5728 62.3799 83.5718C62.6636 83.571 62.9423 83.4971 63.1892 83.3571L93.1677 66.361C93.8802 65.7914 93.9963 64.752 93.4267 64.0395Z" fill="#F8BA1A"/>
<path d="M56.5054 30.0807C55.9346 29.3692 54.8948 29.2552 54.1835 29.8263C54.1385 29.8624 54.0954 29.901 54.0543 29.9417L52.287 31.5934C51.7341 31.0967 51.1107 30.6848 50.4371 30.3712C49.5571 29.9568 48.5789 29.7966 47.6126 29.9087C46.7593 30.014 45.9584 30.3771 45.3167 30.9493C44.6526 31.5082 44.2126 32.2884 44.078 33.146C43.9623 34.0477 44.0583 34.9637 44.3588 35.8218C44.6042 36.5316 44.891 37.2266 45.2176 37.9029L41.9142 40.8595C41.8744 40.7459 41.8413 40.6301 41.8151 40.5126C41.6906 39.7171 41.7761 38.903 42.0629 38.1507C42.1983 37.7964 42.2764 37.4229 42.2941 37.0441C42.2795 36.6765 42.1258 36.3285 41.8647 36.0695C41.5684 35.7031 41.1297 35.4807 40.6589 35.4584C40.2101 35.4291 39.7686 35.5842 39.4367 35.8879C38.8854 36.4125 38.5202 37.1025 38.3961 37.8534C38.2334 38.8423 38.336 39.8569 38.6934 40.7934C38.9405 41.4956 39.2793 42.1621 39.7009 42.7755L37.8015 44.4272C37.1172 45.0305 37.0518 46.0743 37.6551 46.7586C37.972 47.1178 38.4291 47.3218 38.9081 47.3177L38.8751 47.3672C39.2822 47.3707 39.6764 47.2237 39.9817 46.9543L41.8482 45.3026C42.4686 45.886 43.1627 46.3859 43.9128 46.7891C45.8213 47.8702 48.2134 47.5677 49.7929 46.0458C50.3481 45.5617 50.7354 44.914 50.8995 44.1959C51.0616 43.3858 51.0333 42.5488 50.8169 41.7514C50.5188 40.651 50.0861 39.5914 49.5286 38.5967V38.4976L52.2705 36.0365C52.3506 36.4843 52.3506 36.9431 52.2705 37.3909C52.1734 37.8914 52.1292 38.4007 52.1383 38.9105C52.1565 39.3127 52.3208 39.6946 52.6008 39.9841C52.913 40.3838 53.3697 40.645 53.8726 40.7108C54.3159 40.7356 54.7505 40.5808 55.0784 40.2814C55.4316 39.9471 55.6786 39.5162 55.7886 39.0426C55.9133 38.4379 55.9133 37.814 55.7886 37.2092C55.6509 36.4292 55.3887 35.6764 55.0123 34.9794C54.8418 34.6613 54.6543 34.3526 54.4507 34.0545L56.2511 32.4028C56.9626 31.8317 57.0765 30.7919 56.5054 30.0807ZM46.3573 43.5185C45.9266 43.841 45.3657 43.9335 44.8543 43.7663C44.5245 43.6829 44.2115 43.5431 43.9293 43.3534L46.7207 40.9254C46.8409 41.2307 46.9346 41.5456 47.0015 41.8668C47.102 42.4934 46.8555 43.1254 46.3573 43.5185ZM47.9925 35.4252C47.9151 35.1725 47.8653 34.9123 47.8439 34.6489C47.7664 34.1996 47.9293 33.7425 48.2733 33.4431C48.6629 33.1146 49.1987 33.0201 49.6773 33.1954C49.8431 33.2522 50.0035 33.324 50.1563 33.4101L47.9925 35.4252Z" fill="#F8BA1A"/>
</g>
<defs>
<clipPath id="clip0">
<rect width="94" height="94" fill="white"/>
</clipPath>
</defs>
</svg>
