<svg width="62" height="94" viewBox="0 0 62 94" fill="none" xmlns="http://www.w3.org/2000/svg">
<path d="M58.6775 78.43C59.1177 77.5873 59.3516 76.6521 59.3596 75.7014C59.3596 72.339 56.6338 69.6132 53.2715 69.6132H51.1568L43.3121 36.8019C46.6506 36.6188 49.2086 33.764 49.0255 30.4255C48.8784 27.7442 46.9829 25.4804 44.3694 24.8643L51.1909 15.553C51.2436 15.4718 51.2892 15.3861 51.3274 15.2972V15.1778C51.4028 15.0047 51.4489 14.8203 51.4638 14.6321V1.70537C51.4638 0.763579 50.7002 0 49.7584 0H43.261C42.3192 0 41.5556 0.763579 41.5556 1.70537V5.11611H37.0534V1.70537C37.0534 0.763579 36.2898 0 35.348 0H27.5886C26.6468 0 25.8832 0.763579 25.8832 1.70537V5.11611H21.4152V1.70537C21.4152 0.763579 20.6516 0 19.7098 0H13.1612C12.2194 0 11.4558 0.763579 11.4558 1.70537V14.5298C11.4616 14.7284 11.5018 14.9248 11.5752 15.1096V15.229C11.6133 15.3178 11.659 15.4035 11.7116 15.4848L18.5331 24.7961C15.2786 25.5631 13.2622 28.8231 14.0292 32.0776C14.6453 34.6911 16.9092 36.5868 19.5904 36.7337L11.7457 69.5791H9.69927C6.33692 69.5791 3.6111 72.3049 3.6111 75.6673C3.61664 76.598 3.83855 77.5146 4.25914 78.3447H3.91806C2.03427 78.3447 0.507324 79.8717 0.507324 81.7554V90.5893C0.507324 92.4731 2.03427 94 3.91806 94H58.0806C59.9644 94 61.4914 92.4731 61.4914 90.5893V81.8066C61.5003 80.1462 60.3123 78.7205 58.6775 78.43ZM14.8665 3.39369H18.0044V6.80443C18.0044 7.74622 18.768 8.5098 19.7098 8.5098H27.5886C28.5304 8.5098 29.294 7.74622 29.294 6.80443V3.39369H33.6086V6.80443C33.6086 7.74622 34.3721 8.5098 35.3139 8.5098H43.2098C44.1516 8.5098 44.9152 7.74622 44.9152 6.80443V3.39369H48.0531V12.8073H14.8665V3.39369ZM16.5719 16.2181H46.45L40.2936 24.6255H22.6771L16.5719 16.2181ZM17.3568 30.7655C17.3566 30.754 17.3564 30.7425 17.3564 30.7308L17.4587 30.7137C17.4587 29.2349 18.6574 28.0363 20.1361 28.0363H42.9369C44.4157 28.0352 45.6152 29.2332 45.6163 30.7118C45.6174 32.1906 44.4193 33.3901 42.9408 33.3911C42.9395 33.3911 42.9382 33.3911 42.9369 33.3911H20.085C18.6064 33.4195 17.3852 32.2439 17.3568 30.7655ZM23.1546 36.8019H39.8161L47.6438 69.6132H15.2417L23.1546 36.8019ZM9.27229 73.0239C9.41447 73.0126 9.55708 73.0126 9.69927 73.0239H53.2715C54.7456 72.9061 56.0359 74.0054 56.154 75.4793C56.2719 76.9533 55.1725 78.2437 53.6987 78.3618C53.5565 78.3731 53.4139 78.3731 53.2717 78.3618H9.69948C8.2254 78.4796 6.93508 77.3803 6.81698 75.9065C6.69888 74.4324 7.79821 73.1418 9.27229 73.0239ZM58.0977 90.6404H3.90101V81.7896H58.0977V90.6404Z" fill="#F8BA1A"/>
</svg>
